<svg id="svg" version="1.1" xmlns="http://www.w3.org/2000/svg" xmlns:xlink="http://www.w3.org/1999/xlink" width="400" height="225.84" viewBox="0, 0, 400,225.84"><g id="svgg"><path id="path0" d="M346.866 0.571 C 345.288 1.426,344.094 2.377,342.250 4.248 C 341.333 5.178,340.246 6.171,339.833 6.454 C 339.421 6.737,338.825 7.238,338.509 7.567 L 337.935 8.167 336.009 8.168 C 331.679 8.170,327.183 9.325,323.601 11.355 L 322.119 12.195 319.518 12.003 C 311.581 11.416,303.445 13.793,296.549 18.713 L 295.182 19.688 293.966 19.349 C 290.460 18.369,286.112 17.810,285.437 18.252 C 285.010 18.532,284.977 18.531,284.645 18.230 C 284.342 17.955,283.963 17.910,281.557 17.864 C 276.237 17.761,274.160 18.571,273.010 21.195 C 272.178 23.096,272.134 31.061,272.938 34.275 C 273.019 34.600,272.897 34.566,271.630 33.908 C 268.287 32.173,264.652 31.414,260.333 31.549 C 256.492 31.669,253.441 32.233,253.242 32.858 C 253.072 33.394,253.340 33.451,255.635 33.368 C 258.745 33.256,261.714 33.699,265.042 34.772 C 266.027 35.090,266.833 35.365,266.833 35.383 C 266.833 35.402,265.689 35.426,264.291 35.438 C 260.425 35.470,257.000 36.041,257.000 36.654 C 257.000 37.247,257.343 37.333,259.691 37.333 C 263.016 37.333,267.482 37.983,269.872 38.814 C 271.528 39.390,271.487 39.446,269.390 39.463 C 264.163 39.506,259.292 41.516,255.077 45.368 C 253.458 46.848,253.995 47.581,255.801 46.356 C 259.152 44.083,265.049 42.503,268.068 43.069 L 268.683 43.185 267.050 43.990 C 260.758 47.093,256.524 53.157,254.603 61.817 C 253.861 65.163,254.621 65.346,255.930 62.136 C 257.504 58.275,259.240 55.585,261.828 52.993 C 264.026 50.793,265.689 49.669,268.630 48.395 L 269.177 48.158 268.731 49.037 C 266.439 53.559,266.300 59.582,268.107 76.083 C 268.932 83.622,267.936 87.279,263.907 91.496 C 262.985 92.461,260.576 95.125,258.554 97.417 C 256.531 99.708,254.336 102.183,253.675 102.917 C 250.149 106.829,248.041 109.798,241.903 119.500 C 237.343 126.708,235.110 131.976,233.923 138.333 C 233.718 139.428,233.546 139.882,233.162 140.333 C 230.617 143.331,228.921 146.503,228.411 149.223 C 228.227 150.203,226.949 151.000,225.560 151.000 C 224.181 151.000,221.119 151.540,219.123 152.136 C 217.595 152.593,217.440 152.609,216.575 152.408 C 216.069 152.290,215.076 152.143,214.369 152.081 C 213.662 152.018,212.408 151.743,211.583 151.469 C 210.663 151.163,209.568 150.935,208.750 150.879 C 207.220 150.775,206.961 150.665,205.552 149.522 C 196.451 142.136,181.209 134.359,171.583 132.190 C 164.548 130.604,154.883 131.024,147.333 133.243 C 145.577 133.759,145.489 133.760,143.256 133.255 C 142.255 133.029,140.644 132.728,139.676 132.587 C 138.708 132.446,137.405 132.254,136.779 132.161 C 121.470 129.891,104.864 135.738,97.202 146.097 C 96.401 147.180,96.197 147.343,94.755 148.059 C 93.574 148.646,92.836 149.164,91.799 150.136 L 90.417 151.432 89.417 151.288 C 86.919 150.928,82.715 151.360,78.500 152.411 C 77.262 152.719,74.975 153.205,73.417 153.491 C 71.858 153.777,70.445 154.041,70.276 154.077 C 69.904 154.157,69.734 154.353,72.602 151.417 C 73.766 150.225,75.471 148.318,76.391 147.178 C 89.289 131.191,106.554 117.662,115.333 116.662 C 117.549 116.410,120.868 116.772,121.660 117.352 C 121.893 117.522,122.999 117.997,124.117 118.407 C 125.236 118.818,126.538 119.349,127.010 119.588 C 129.379 120.789,131.567 119.668,138.205 113.856 C 140.524 111.826,140.793 111.504,141.019 110.496 C 141.898 106.584,141.857 98.885,140.925 92.709 C 139.900 85.928,141.590 76.888,145.723 67.034 C 148.028 61.540,148.199 56.980,146.404 48.917 C 146.160 47.817,145.922 46.729,145.877 46.500 C 144.845 41.299,142.115 34.067,140.884 33.276 C 139.138 32.153,136.853 32.255,135.167 33.530 C 134.938 33.703,134.360 34.141,133.883 34.503 C 131.674 36.181,129.817 40.489,128.902 46.058 C 128.769 46.869,128.394 48.256,128.070 49.141 C 127.745 50.026,127.446 50.850,127.406 50.972 C 127.366 51.094,126.855 51.919,126.270 52.805 C 124.607 55.325,123.812 57.262,123.764 58.909 C 123.742 59.647,123.626 60.438,123.505 60.667 C 123.385 60.896,122.351 62.733,121.208 64.750 C 120.065 66.767,118.961 68.717,118.754 69.083 C 117.512 71.291,113.890 78.075,112.658 80.500 C 106.241 93.139,94.012 103.276,67.583 117.866 C 64.352 119.650,63.112 120.317,59.583 122.166 C 53.729 125.235,51.216 126.645,47.167 129.135 C 43.586 131.337,39.963 133.724,36.333 136.272 C 34.637 137.463,32.650 138.839,31.917 139.331 C 25.011 143.965,16.001 151.389,9.167 158.079 C 5.513 161.655,3.590 163.422,1.292 165.315 L -0.000 166.378 -0.000 186.082 L 0.000 205.787 3.542 205.879 C 5.678 205.935,8.042 206.106,9.500 206.310 C 11.862 206.640,16.582 207.042,20.583 207.252 C 21.683 207.310,22.921 207.464,23.333 207.594 C 26.530 208.603,41.145 208.657,43.744 207.669 C 44.727 207.295,51.867 207.458,52.770 207.875 C 54.633 208.734,69.994 208.488,72.462 207.560 C 74.087 206.949,85.793 207.019,90.833 207.670 C 92.051 207.827,93.309 207.915,101.583 208.419 C 112.148 209.063,127.168 208.594,134.250 207.398 C 137.299 206.883,139.254 206.829,146.583 207.056 C 149.698 207.152,151.648 207.293,152.917 207.513 C 153.925 207.688,155.950 207.905,157.417 207.995 C 159.873 208.146,161.042 208.304,163.750 208.852 C 165.570 209.220,168.681 209.115,170.667 208.620 C 178.226 206.735,181.649 206.382,187.917 206.838 C 191.125 207.071,196.275 207.936,198.000 208.531 C 200.649 209.444,201.046 209.523,203.516 209.617 C 205.209 209.682,206.755 209.626,208.599 209.435 C 218.444 208.410,232.539 208.270,241.333 209.108 C 244.605 209.420,248.472 209.326,250.250 208.892 C 250.892 208.735,251.754 208.633,252.167 208.666 C 257.227 209.066,260.705 207.906,264.269 204.630 C 264.918 204.033,267.214 202.833,267.707 202.833 C 268.411 202.833,270.961 202.034,272.322 201.387 L 273.895 200.640 274.951 200.987 C 276.193 201.394,278.140 201.439,279.892 201.100 C 280.995 200.887,281.083 200.895,282.520 201.358 C 286.619 202.675,295.058 203.098,297.917 202.129 C 299.473 201.602,301.335 200.497,302.749 199.262 L 303.750 198.387 304.667 198.802 C 305.171 199.030,306.221 199.459,307.000 199.757 C 308.379 200.283,308.432 200.324,308.980 201.274 C 311.438 205.536,313.134 208.100,315.251 210.750 C 317.915 214.086,320.157 217.664,320.985 219.903 C 322.184 223.144,325.291 224.826,330.083 224.828 C 331.183 224.829,333.508 224.916,335.250 225.021 C 341.972 225.429,346.385 222.508,347.745 216.750 C 347.853 216.292,347.974 215.931,348.013 215.948 C 348.052 215.966,348.511 216.176,349.034 216.416 C 349.989 216.853,351.243 217.177,354.500 217.830 C 357.032 218.337,358.755 218.748,360.083 219.160 C 362.907 220.037,365.315 219.654,368.737 217.782 C 372.210 215.883,373.008 214.876,373.334 211.985 C 373.709 208.661,374.939 204.227,376.335 201.166 C 378.985 195.356,378.641 188.197,375.252 178.667 C 372.484 170.884,370.437 163.726,368.509 155.083 L 368.174 153.583 369.412 150.500 C 372.716 142.267,374.223 133.755,374.241 123.220 C 374.246 120.454,374.303 118.334,374.368 118.508 C 375.536 121.645,376.349 133.448,375.825 139.667 C 375.507 143.443,375.511 143.573,375.947 143.635 C 376.394 143.699,376.585 143.369,377.029 141.773 C 379.740 132.014,379.611 118.933,376.691 107.308 L 376.048 104.750 376.632 104.196 C 376.954 103.891,377.948 103.012,378.841 102.243 C 380.726 100.620,380.998 100.233,381.586 98.326 C 382.919 94.002,383.585 92.079,384.267 90.583 C 385.293 88.334,385.361 87.544,384.694 85.628 L 384.187 84.172 384.595 83.443 C 384.819 83.042,385.106 82.159,385.232 81.482 C 385.359 80.804,385.654 79.725,385.888 79.083 C 386.600 77.135,387.162 74.712,387.433 72.424 C 387.575 71.228,387.736 69.912,387.790 69.500 L 387.889 68.750 388.015 69.417 C 388.085 69.783,388.196 71.002,388.262 72.125 C 388.458 75.451,389.244 75.386,389.777 72.000 C 390.872 65.046,389.580 56.193,386.555 49.917 L 386.153 49.083 386.588 49.583 C 389.073 52.441,391.968 57.047,393.704 60.906 C 394.685 63.087,396.167 67.393,396.167 68.062 C 396.167 68.524,396.611 69.167,396.930 69.167 C 397.920 69.167,397.818 60.900,396.767 55.917 C 394.905 47.091,389.395 38.466,381.500 32.018 C 380.894 31.524,381.065 31.570,383.612 32.591 C 388.483 34.546,393.391 37.511,397.723 41.117 C 400.368 43.319,400.941 42.896,399.060 40.131 C 392.491 30.482,380.248 22.540,366.583 19.065 C 364.712 18.589,363.148 17.947,361.398 16.935 C 360.066 16.165,359.539 15.234,358.597 11.981 C 357.460 8.055,355.515 4.460,352.878 1.408 L 351.733 0.083 349.825 0.043 C 347.936 0.002,347.906 0.008,346.866 0.571 M381.738 71.000 C 382.436 72.790,383.177 75.320,383.397 76.667 C 383.531 77.487,383.257 76.986,382.218 74.508 C 381.567 72.956,381.238 72.407,380.462 71.574 L 379.507 70.548 379.842 69.855 C 380.026 69.474,380.255 68.957,380.351 68.706 L 380.525 68.250 380.758 68.667 C 380.886 68.896,381.327 69.946,381.738 71.000 " stroke="none" fill="#1c1b16" fill-rule="evenodd"></path></g></svg>