<svg width="475" height="288" viewBox="0 0 475 288" fill="none" xmlns="http://www.w3.org/2000/svg">
<mask id="path-1-outside-1_2_2" maskUnits="userSpaceOnUse" x="4" y="17" width="434" height="266" fill="black">
<rect fill="white" x="4" y="17" width="434" height="266"/>
<path fill-rule="evenodd" clip-rule="evenodd" d="M361.855 42.5211C360.341 43.3418 359.195 44.2546 357.425 46.0506C356.546 46.9432 355.502 47.8964 355.106 48.168C354.711 48.4397 354.139 48.9206 353.836 49.2364L353.285 49.8123L351.437 49.8132C347.281 49.8152 342.967 50.9238 339.53 52.8723L338.108 53.6786L335.612 53.4943C327.995 52.9309 320.188 55.2125 313.57 59.9351L312.259 60.8709L311.092 60.5455C307.727 59.6049 303.555 59.0683 302.907 59.4926C302.498 59.7613 302.466 59.7604 302.147 59.4715C301.857 59.2075 301.493 59.1643 299.184 59.1201C294.079 59.0213 292.086 59.7988 290.982 62.3175C290.184 64.1422 290.142 71.7875 290.913 74.8726C290.991 75.1845 290.874 75.1519 289.658 74.5203C286.45 72.8549 282.962 72.1264 278.817 72.256C275.132 72.3711 272.204 72.9125 272.013 73.5124C271.85 74.0269 272.107 74.0816 274.309 74.002C277.293 73.8945 280.143 74.3197 283.336 75.3496C284.281 75.6549 285.055 75.9188 285.055 75.9361C285.055 75.9543 283.957 75.9774 282.615 75.9889C278.906 76.0196 275.619 76.5677 275.619 77.1561C275.619 77.7253 275.948 77.8078 278.201 77.8078C281.392 77.8078 285.678 78.4318 287.971 79.2294C289.56 79.7823 289.521 79.8361 287.509 79.8524C282.493 79.8936 277.818 81.823 273.774 85.5204C272.22 86.941 272.735 87.6446 274.468 86.4688C277.684 84.287 283.343 82.7704 286.24 83.3137L286.83 83.425L285.263 84.1977C279.225 87.1762 275.162 92.9968 273.319 101.309C272.607 104.521 273.336 104.697 274.592 101.615C276.103 97.9094 277.769 95.3274 280.252 92.8394C282.361 90.7277 283.957 89.6488 286.779 88.4259L287.304 88.1984L286.876 89.0422C284.677 93.3827 284.543 99.164 286.277 115.003C287.069 122.239 286.113 125.749 282.247 129.797C281.362 130.724 279.051 133.281 277.11 135.481C275.169 137.68 273.063 140.055 272.428 140.76C269.045 144.515 267.022 147.365 261.132 156.677C256.756 163.596 254.613 168.653 253.474 174.755C253.277 175.806 253.112 176.242 252.744 176.674C250.302 179.552 248.674 182.597 248.185 185.208C248.008 186.148 246.782 186.913 245.449 186.913C244.126 186.913 241.187 187.432 239.272 188.004C237.806 188.442 237.657 188.458 236.827 188.265C236.341 188.152 235.388 188.01 234.71 187.951C234.032 187.891 232.828 187.627 232.036 187.364C231.154 187.07 230.103 186.851 229.318 186.797C227.85 186.697 227.601 186.592 226.249 185.495C217.516 178.405 202.889 170.94 193.652 168.858C186.901 167.336 177.627 167.739 170.382 169.869C168.697 170.364 168.612 170.365 166.469 169.88C165.509 169.664 163.963 169.375 163.034 169.239C162.105 169.104 160.855 168.92 160.254 168.83C145.563 166.651 129.628 172.264 122.276 182.207C121.507 183.247 121.311 183.403 119.928 184.09C118.794 184.654 118.086 185.151 117.091 186.084L115.765 187.328L114.805 187.19C112.408 186.844 108.374 187.259 104.329 188.268C103.141 188.563 100.947 189.03 99.4515 189.304C97.9554 189.579 96.5995 189.832 96.4373 189.867C96.0804 189.944 95.9172 190.132 98.6694 187.314C99.7864 186.169 101.422 184.339 102.305 183.245C114.682 167.899 131.25 154.913 139.674 153.953C141.801 153.711 144.986 154.059 145.746 154.616C145.969 154.779 147.031 155.235 148.104 155.628C149.177 156.023 150.427 156.533 150.88 156.762C153.153 157.915 155.253 156.839 161.622 151.26C163.848 149.311 164.106 149.002 164.323 148.035C165.166 144.28 165.127 136.89 164.233 130.962C163.249 124.453 164.871 115.775 168.837 106.317C171.049 101.043 171.213 96.6664 169.49 88.927C169.256 87.8711 169.028 86.8268 168.985 86.607C167.994 81.6147 165.375 74.6729 164.193 73.9137C162.518 72.8357 160.325 72.9336 158.707 74.1575C158.487 74.3235 157.933 74.7439 157.475 75.0914C155.355 76.7021 153.573 80.8372 152.695 86.1827C152.568 86.9612 152.208 88.2925 151.897 89.142C151.585 89.9915 151.298 90.7824 151.26 90.8995C151.221 91.0166 150.731 91.8085 150.17 92.659C148.574 95.0778 147.811 96.9371 147.765 98.518C147.744 99.2264 147.632 99.9856 147.516 100.205C147.401 100.425 146.409 102.189 145.312 104.125C144.215 106.061 143.156 107.932 142.957 108.284C141.765 110.403 138.29 116.915 137.107 119.243C130.95 131.374 119.215 141.105 93.8531 155.109C90.7526 156.821 89.5627 157.462 86.1763 159.236C80.5587 162.182 78.1472 163.536 74.2618 165.926C70.8254 168.039 67.3488 170.331 63.8654 172.776C62.2379 173.92 60.3312 175.24 59.6278 175.713C53.0007 180.161 44.3547 187.287 37.7967 193.708C34.2903 197.141 32.445 198.837 30.2398 200.654L29 201.674V220.588V239.502L32.3989 239.59C34.4486 239.644 36.7172 239.808 38.1163 240.004C40.3829 240.321 44.9122 240.706 48.7516 240.908C49.8072 240.964 50.9951 241.111 51.3905 241.236C54.4584 242.205 68.483 242.257 70.977 241.308C71.9203 240.949 78.7719 241.106 79.6385 241.506C81.4262 242.33 96.1667 242.094 98.535 241.204C100.094 240.617 111.328 240.684 116.164 241.309C117.333 241.46 118.54 241.544 126.48 242.028C136.618 242.646 151.031 242.196 157.827 241.048C160.753 240.554 162.629 240.502 169.662 240.72C172.651 240.812 174.522 240.947 175.74 241.158C176.707 241.326 178.651 241.535 180.058 241.621C182.415 241.766 183.537 241.918 186.136 242.444C187.882 242.797 190.867 242.696 192.773 242.221C200.027 240.412 203.312 240.073 209.326 240.511C212.405 240.734 217.347 241.565 219.002 242.136C221.544 243.012 221.925 243.088 224.295 243.178C225.92 243.24 227.404 243.187 229.173 243.003C238.62 242.019 252.146 241.885 260.585 242.689C263.725 242.989 267.435 242.899 269.142 242.482C269.758 242.331 270.585 242.234 270.981 242.265C275.837 242.649 279.174 241.536 282.594 238.391C283.217 237.818 285.42 236.666 285.893 236.666C286.569 236.666 289.016 235.899 290.322 235.278L291.832 234.561L292.845 234.894C294.037 235.285 295.905 235.328 297.586 235.003C298.645 234.798 298.729 234.806 300.108 235.25C304.042 236.515 312.14 236.921 314.883 235.991C316.376 235.485 318.163 234.424 319.52 233.239L320.481 232.399L321.361 232.797C321.844 233.016 322.852 233.428 323.599 233.714C324.923 234.219 324.973 234.258 325.499 235.17C327.858 239.261 329.486 241.722 331.517 244.266C334.073 247.468 336.225 250.902 337.019 253.051C338.17 256.162 341.151 257.777 345.75 257.779C346.805 257.78 349.037 257.863 350.708 257.964C357.159 258.356 361.393 255.552 362.698 250.025C362.802 249.585 362.918 249.239 362.956 249.255C362.993 249.272 363.434 249.474 363.935 249.704C364.852 250.124 366.055 250.435 369.181 251.061C371.61 251.548 373.264 251.943 374.538 252.338C377.248 253.18 379.559 252.812 382.843 251.015C386.175 249.193 386.941 248.226 387.254 245.451C387.614 242.26 388.794 238.004 390.134 235.066C392.677 229.489 392.346 222.618 389.094 213.47C386.438 205.999 384.474 199.129 382.624 190.833L382.302 189.393L383.49 186.433C386.661 178.531 388.107 170.36 388.124 160.248C388.129 157.593 388.184 155.558 388.246 155.725C389.367 158.736 390.147 170.066 389.644 176.035C389.339 179.66 389.343 179.784 389.761 179.844C390.19 179.905 390.374 179.589 390.8 178.057C393.401 168.689 393.277 156.133 390.475 144.975L389.858 142.519L390.419 141.988C390.728 141.695 391.682 140.851 392.538 140.113C394.347 138.555 394.608 138.184 395.173 136.353C396.452 132.203 397.091 130.357 397.745 128.921C398.73 126.762 398.795 126.004 398.155 124.165L397.668 122.767L398.06 122.067C398.275 121.683 398.55 120.835 398.671 120.185C398.793 119.534 399.076 118.499 399.301 117.882C399.984 116.013 400.523 113.687 400.783 111.491C400.92 110.343 401.074 109.079 401.126 108.684L401.221 107.964L401.342 108.604C401.409 108.956 401.516 110.126 401.579 111.204C401.767 114.396 402.521 114.334 403.033 111.084C404.083 104.409 402.844 95.911 399.941 89.8868L399.555 89.0863L399.973 89.5662C402.357 92.3096 405.135 96.7307 406.801 100.435C407.742 102.528 409.165 106.662 409.165 107.304C409.165 107.747 409.591 108.364 409.897 108.364C410.847 108.364 410.749 100.429 409.74 95.6461C407.954 87.1743 402.666 78.8954 395.09 72.7061C394.509 72.232 394.673 72.2761 397.117 73.2561C401.791 75.1327 406.501 77.9787 410.658 81.44C413.196 83.5536 413.746 83.1476 411.941 80.4936C405.637 71.2318 393.889 63.6085 380.776 60.2729C378.98 59.816 377.479 59.1998 375.8 58.2284C374.522 57.4893 374.016 56.5957 373.112 53.4732C372.021 49.7048 370.155 46.254 367.624 43.3245L366.525 42.0527L364.694 42.0143C362.882 41.9749 362.853 41.9807 361.855 42.5211ZM395.318 110.124C395.988 111.842 396.699 114.27 396.91 115.563C397.039 116.35 396.776 115.87 395.779 113.491C395.154 112.001 394.839 111.474 394.094 110.675L393.178 109.69L393.499 109.025C393.676 108.659 393.895 108.163 393.987 107.922L394.154 107.484L394.378 107.884C394.501 108.104 394.924 109.112 395.318 110.124Z"/>
</mask>
<path fill-rule="evenodd" clip-rule="evenodd" d="M361.855 42.5211C360.341 43.3418 359.195 44.2546 357.425 46.0506C356.546 46.9432 355.502 47.8964 355.106 48.168C354.711 48.4397 354.139 48.9206 353.836 49.2364L353.285 49.8123L351.437 49.8132C347.281 49.8152 342.967 50.9238 339.53 52.8723L338.108 53.6786L335.612 53.4943C327.995 52.9309 320.188 55.2125 313.57 59.9351L312.259 60.8709L311.092 60.5455C307.727 59.6049 303.555 59.0683 302.907 59.4926C302.498 59.7613 302.466 59.7604 302.147 59.4715C301.857 59.2075 301.493 59.1643 299.184 59.1201C294.079 59.0213 292.086 59.7988 290.982 62.3175C290.184 64.1422 290.142 71.7875 290.913 74.8726C290.991 75.1845 290.874 75.1519 289.658 74.5203C286.45 72.8549 282.962 72.1264 278.817 72.256C275.132 72.3711 272.204 72.9125 272.013 73.5124C271.85 74.0269 272.107 74.0816 274.309 74.002C277.293 73.8945 280.143 74.3197 283.336 75.3496C284.281 75.6549 285.055 75.9188 285.055 75.9361C285.055 75.9543 283.957 75.9774 282.615 75.9889C278.906 76.0196 275.619 76.5677 275.619 77.1561C275.619 77.7253 275.948 77.8078 278.201 77.8078C281.392 77.8078 285.678 78.4318 287.971 79.2294C289.56 79.7823 289.521 79.8361 287.509 79.8524C282.493 79.8936 277.818 81.823 273.774 85.5204C272.22 86.941 272.735 87.6446 274.468 86.4688C277.684 84.287 283.343 82.7704 286.24 83.3137L286.83 83.425L285.263 84.1977C279.225 87.1762 275.162 92.9968 273.319 101.309C272.607 104.521 273.336 104.697 274.592 101.615C276.103 97.9094 277.769 95.3274 280.252 92.8394C282.361 90.7277 283.957 89.6488 286.779 88.4259L287.304 88.1984L286.876 89.0422C284.677 93.3827 284.543 99.164 286.277 115.003C287.069 122.239 286.113 125.749 282.247 129.797C281.362 130.724 279.051 133.281 277.11 135.481C275.169 137.68 273.063 140.055 272.428 140.76C269.045 144.515 267.022 147.365 261.132 156.677C256.756 163.596 254.613 168.653 253.474 174.755C253.277 175.806 253.112 176.242 252.744 176.674C250.302 179.552 248.674 182.597 248.185 185.208C248.008 186.148 246.782 186.913 245.449 186.913C244.126 186.913 241.187 187.432 239.272 188.004C237.806 188.442 237.657 188.458 236.827 188.265C236.341 188.152 235.388 188.01 234.71 187.951C234.032 187.891 232.828 187.627 232.036 187.364C231.154 187.07 230.103 186.851 229.318 186.797C227.85 186.697 227.601 186.592 226.249 185.495C217.516 178.405 202.889 170.94 193.652 168.858C186.901 167.336 177.627 167.739 170.382 169.869C168.697 170.364 168.612 170.365 166.469 169.88C165.509 169.664 163.963 169.375 163.034 169.239C162.105 169.104 160.855 168.92 160.254 168.83C145.563 166.651 129.628 172.264 122.276 182.207C121.507 183.247 121.311 183.403 119.928 184.09C118.794 184.654 118.086 185.151 117.091 186.084L115.765 187.328L114.805 187.19C112.408 186.844 108.374 187.259 104.329 188.268C103.141 188.563 100.947 189.03 99.4515 189.304C97.9554 189.579 96.5995 189.832 96.4373 189.867C96.0804 189.944 95.9172 190.132 98.6694 187.314C99.7864 186.169 101.422 184.339 102.305 183.245C114.682 167.899 131.25 154.913 139.674 153.953C141.801 153.711 144.986 154.059 145.746 154.616C145.969 154.779 147.031 155.235 148.104 155.628C149.177 156.023 150.427 156.533 150.88 156.762C153.153 157.915 155.253 156.839 161.622 151.26C163.848 149.311 164.106 149.002 164.323 148.035C165.166 144.28 165.127 136.89 164.233 130.962C163.249 124.453 164.871 115.775 168.837 106.317C171.049 101.043 171.213 96.6664 169.49 88.927C169.256 87.8711 169.028 86.8268 168.985 86.607C167.994 81.6147 165.375 74.6729 164.193 73.9137C162.518 72.8357 160.325 72.9336 158.707 74.1575C158.487 74.3235 157.933 74.7439 157.475 75.0914C155.355 76.7021 153.573 80.8372 152.695 86.1827C152.568 86.9612 152.208 88.2925 151.897 89.142C151.585 89.9915 151.298 90.7824 151.26 90.8995C151.221 91.0166 150.731 91.8085 150.17 92.659C148.574 95.0778 147.811 96.9371 147.765 98.518C147.744 99.2264 147.632 99.9856 147.516 100.205C147.401 100.425 146.409 102.189 145.312 104.125C144.215 106.061 143.156 107.932 142.957 108.284C141.765 110.403 138.29 116.915 137.107 119.243C130.95 131.374 119.215 141.105 93.8531 155.109C90.7526 156.821 89.5627 157.462 86.1763 159.236C80.5587 162.182 78.1472 163.536 74.2618 165.926C70.8254 168.039 67.3488 170.331 63.8654 172.776C62.2379 173.92 60.3312 175.24 59.6278 175.713C53.0007 180.161 44.3547 187.287 37.7967 193.708C34.2903 197.141 32.445 198.837 30.2398 200.654L29 201.674V220.588V239.502L32.3989 239.59C34.4486 239.644 36.7172 239.808 38.1163 240.004C40.3829 240.321 44.9122 240.706 48.7516 240.908C49.8072 240.964 50.9951 241.111 51.3905 241.236C54.4584 242.205 68.483 242.257 70.977 241.308C71.9203 240.949 78.7719 241.106 79.6385 241.506C81.4262 242.33 96.1667 242.094 98.535 241.204C100.094 240.617 111.328 240.684 116.164 241.309C117.333 241.46 118.54 241.544 126.48 242.028C136.618 242.646 151.031 242.196 157.827 241.048C160.753 240.554 162.629 240.502 169.662 240.72C172.651 240.812 174.522 240.947 175.74 241.158C176.707 241.326 178.651 241.535 180.058 241.621C182.415 241.766 183.537 241.918 186.136 242.444C187.882 242.797 190.867 242.696 192.773 242.221C200.027 240.412 203.312 240.073 209.326 240.511C212.405 240.734 217.347 241.565 219.002 242.136C221.544 243.012 221.925 243.088 224.295 243.178C225.92 243.24 227.404 243.187 229.173 243.003C238.62 242.019 252.146 241.885 260.585 242.689C263.725 242.989 267.435 242.899 269.142 242.482C269.758 242.331 270.585 242.234 270.981 242.265C275.837 242.649 279.174 241.536 282.594 238.391C283.217 237.818 285.42 236.666 285.893 236.666C286.569 236.666 289.016 235.899 290.322 235.278L291.832 234.561L292.845 234.894C294.037 235.285 295.905 235.328 297.586 235.003C298.645 234.798 298.729 234.806 300.108 235.25C304.042 236.515 312.14 236.921 314.883 235.991C316.376 235.485 318.163 234.424 319.52 233.239L320.481 232.399L321.361 232.797C321.844 233.016 322.852 233.428 323.599 233.714C324.923 234.219 324.973 234.258 325.499 235.17C327.858 239.261 329.486 241.722 331.517 244.266C334.073 247.468 336.225 250.902 337.019 253.051C338.17 256.162 341.151 257.777 345.75 257.779C346.805 257.78 349.037 257.863 350.708 257.964C357.159 258.356 361.393 255.552 362.698 250.025C362.802 249.585 362.918 249.239 362.956 249.255C362.993 249.272 363.434 249.474 363.935 249.704C364.852 250.124 366.055 250.435 369.181 251.061C371.61 251.548 373.264 251.943 374.538 252.338C377.248 253.18 379.559 252.812 382.843 251.015C386.175 249.193 386.941 248.226 387.254 245.451C387.614 242.26 388.794 238.004 390.134 235.066C392.677 229.489 392.346 222.618 389.094 213.47C386.438 205.999 384.474 199.129 382.624 190.833L382.302 189.393L383.49 186.433C386.661 178.531 388.107 170.36 388.124 160.248C388.129 157.593 388.184 155.558 388.246 155.725C389.367 158.736 390.147 170.066 389.644 176.035C389.339 179.66 389.343 179.784 389.761 179.844C390.19 179.905 390.374 179.589 390.8 178.057C393.401 168.689 393.277 156.133 390.475 144.975L389.858 142.519L390.419 141.988C390.728 141.695 391.682 140.851 392.538 140.113C394.347 138.555 394.608 138.184 395.173 136.353C396.452 132.203 397.091 130.357 397.745 128.921C398.73 126.762 398.795 126.004 398.155 124.165L397.668 122.767L398.06 122.067C398.275 121.683 398.55 120.835 398.671 120.185C398.793 119.534 399.076 118.499 399.301 117.882C399.984 116.013 400.523 113.687 400.783 111.491C400.92 110.343 401.074 109.079 401.126 108.684L401.221 107.964L401.342 108.604C401.409 108.956 401.516 110.126 401.579 111.204C401.767 114.396 402.521 114.334 403.033 111.084C404.083 104.409 402.844 95.911 399.941 89.8868L399.555 89.0863L399.973 89.5662C402.357 92.3096 405.135 96.7307 406.801 100.435C407.742 102.528 409.165 106.662 409.165 107.304C409.165 107.747 409.591 108.364 409.897 108.364C410.847 108.364 410.749 100.429 409.74 95.6461C407.954 87.1743 402.666 78.8954 395.09 72.7061C394.509 72.232 394.673 72.2761 397.117 73.2561C401.791 75.1327 406.501 77.9787 410.658 81.44C413.196 83.5536 413.746 83.1476 411.941 80.4936C405.637 71.2318 393.889 63.6085 380.776 60.2729C378.98 59.816 377.479 59.1998 375.8 58.2284C374.522 57.4893 374.016 56.5957 373.112 53.4732C372.021 49.7048 370.155 46.254 367.624 43.3245L366.525 42.0527L364.694 42.0143C362.882 41.9749 362.853 41.9807 361.855 42.5211ZM395.318 110.124C395.988 111.842 396.699 114.27 396.91 115.563C397.039 116.35 396.776 115.87 395.779 113.491C395.154 112.001 394.839 111.474 394.094 110.675L393.178 109.69L393.499 109.025C393.676 108.659 393.895 108.163 393.987 107.922L394.154 107.484L394.378 107.884C394.501 108.104 394.924 109.112 395.318 110.124Z" fill="black"/>
<path fill-rule="evenodd" clip-rule="evenodd" d="M361.855 42.5211C360.341 43.3418 359.195 44.2546 357.425 46.0506C356.546 46.9432 355.502 47.8964 355.106 48.168C354.711 48.4397 354.139 48.9206 353.836 49.2364L353.285 49.8123L351.437 49.8132C347.281 49.8152 342.967 50.9238 339.53 52.8723L338.108 53.6786L335.612 53.4943C327.995 52.9309 320.188 55.2125 313.57 59.9351L312.259 60.8709L311.092 60.5455C307.727 59.6049 303.555 59.0683 302.907 59.4926C302.498 59.7613 302.466 59.7604 302.147 59.4715C301.857 59.2075 301.493 59.1643 299.184 59.1201C294.079 59.0213 292.086 59.7988 290.982 62.3175C290.184 64.1422 290.142 71.7875 290.913 74.8726C290.991 75.1845 290.874 75.1519 289.658 74.5203C286.45 72.8549 282.962 72.1264 278.817 72.256C275.132 72.3711 272.204 72.9125 272.013 73.5124C271.85 74.0269 272.107 74.0816 274.309 74.002C277.293 73.8945 280.143 74.3197 283.336 75.3496C284.281 75.6549 285.055 75.9188 285.055 75.9361C285.055 75.9543 283.957 75.9774 282.615 75.9889C278.906 76.0196 275.619 76.5677 275.619 77.1561C275.619 77.7253 275.948 77.8078 278.201 77.8078C281.392 77.8078 285.678 78.4318 287.971 79.2294C289.56 79.7823 289.521 79.8361 287.509 79.8524C282.493 79.8936 277.818 81.823 273.774 85.5204C272.22 86.941 272.735 87.6446 274.468 86.4688C277.684 84.287 283.343 82.7704 286.24 83.3137L286.83 83.425L285.263 84.1977C279.225 87.1762 275.162 92.9968 273.319 101.309C272.607 104.521 273.336 104.697 274.592 101.615C276.103 97.9094 277.769 95.3274 280.252 92.8394C282.361 90.7277 283.957 89.6488 286.779 88.4259L287.304 88.1984L286.876 89.0422C284.677 93.3827 284.543 99.164 286.277 115.003C287.069 122.239 286.113 125.749 282.247 129.797C281.362 130.724 279.051 133.281 277.11 135.481C275.169 137.68 273.063 140.055 272.428 140.76C269.045 144.515 267.022 147.365 261.132 156.677C256.756 163.596 254.613 168.653 253.474 174.755C253.277 175.806 253.112 176.242 252.744 176.674C250.302 179.552 248.674 182.597 248.185 185.208C248.008 186.148 246.782 186.913 245.449 186.913C244.126 186.913 241.187 187.432 239.272 188.004C237.806 188.442 237.657 188.458 236.827 188.265C236.341 188.152 235.388 188.01 234.71 187.951C234.032 187.891 232.828 187.627 232.036 187.364C231.154 187.07 230.103 186.851 229.318 186.797C227.85 186.697 227.601 186.592 226.249 185.495C217.516 178.405 202.889 170.94 193.652 168.858C186.901 167.336 177.627 167.739 170.382 169.869C168.697 170.364 168.612 170.365 166.469 169.88C165.509 169.664 163.963 169.375 163.034 169.239C162.105 169.104 160.855 168.92 160.254 168.83C145.563 166.651 129.628 172.264 122.276 182.207C121.507 183.247 121.311 183.403 119.928 184.09C118.794 184.654 118.086 185.151 117.091 186.084L115.765 187.328L114.805 187.19C112.408 186.844 108.374 187.259 104.329 188.268C103.141 188.563 100.947 189.03 99.4515 189.304C97.9554 189.579 96.5995 189.832 96.4373 189.867C96.0804 189.944 95.9172 190.132 98.6694 187.314C99.7864 186.169 101.422 184.339 102.305 183.245C114.682 167.899 131.25 154.913 139.674 153.953C141.801 153.711 144.986 154.059 145.746 154.616C145.969 154.779 147.031 155.235 148.104 155.628C149.177 156.023 150.427 156.533 150.88 156.762C153.153 157.915 155.253 156.839 161.622 151.26C163.848 149.311 164.106 149.002 164.323 148.035C165.166 144.28 165.127 136.89 164.233 130.962C163.249 124.453 164.871 115.775 168.837 106.317C171.049 101.043 171.213 96.6664 169.49 88.927C169.256 87.8711 169.028 86.8268 168.985 86.607C167.994 81.6147 165.375 74.6729 164.193 73.9137C162.518 72.8357 160.325 72.9336 158.707 74.1575C158.487 74.3235 157.933 74.7439 157.475 75.0914C155.355 76.7021 153.573 80.8372 152.695 86.1827C152.568 86.9612 152.208 88.2925 151.897 89.142C151.585 89.9915 151.298 90.7824 151.26 90.8995C151.221 91.0166 150.731 91.8085 150.17 92.659C148.574 95.0778 147.811 96.9371 147.765 98.518C147.744 99.2264 147.632 99.9856 147.516 100.205C147.401 100.425 146.409 102.189 145.312 104.125C144.215 106.061 143.156 107.932 142.957 108.284C141.765 110.403 138.29 116.915 137.107 119.243C130.95 131.374 119.215 141.105 93.8531 155.109C90.7526 156.821 89.5627 157.462 86.1763 159.236C80.5587 162.182 78.1472 163.536 74.2618 165.926C70.8254 168.039 67.3488 170.331 63.8654 172.776C62.2379 173.92 60.3312 175.24 59.6278 175.713C53.0007 180.161 44.3547 187.287 37.7967 193.708C34.2903 197.141 32.445 198.837 30.2398 200.654L29 201.674V220.588V239.502L32.3989 239.59C34.4486 239.644 36.7172 239.808 38.1163 240.004C40.3829 240.321 44.9122 240.706 48.7516 240.908C49.8072 240.964 50.9951 241.111 51.3905 241.236C54.4584 242.205 68.483 242.257 70.977 241.308C71.9203 240.949 78.7719 241.106 79.6385 241.506C81.4262 242.33 96.1667 242.094 98.535 241.204C100.094 240.617 111.328 240.684 116.164 241.309C117.333 241.46 118.54 241.544 126.48 242.028C136.618 242.646 151.031 242.196 157.827 241.048C160.753 240.554 162.629 240.502 169.662 240.72C172.651 240.812 174.522 240.947 175.74 241.158C176.707 241.326 178.651 241.535 180.058 241.621C182.415 241.766 183.537 241.918 186.136 242.444C187.882 242.797 190.867 242.696 192.773 242.221C200.027 240.412 203.312 240.073 209.326 240.511C212.405 240.734 217.347 241.565 219.002 242.136C221.544 243.012 221.925 243.088 224.295 243.178C225.92 243.24 227.404 243.187 229.173 243.003C238.62 242.019 252.146 241.885 260.585 242.689C263.725 242.989 267.435 242.899 269.142 242.482C269.758 242.331 270.585 242.234 270.981 242.265C275.837 242.649 279.174 241.536 282.594 238.391C283.217 237.818 285.42 236.666 285.893 236.666C286.569 236.666 289.016 235.899 290.322 235.278L291.832 234.561L292.845 234.894C294.037 235.285 295.905 235.328 297.586 235.003C298.645 234.798 298.729 234.806 300.108 235.25C304.042 236.515 312.14 236.921 314.883 235.991C316.376 235.485 318.163 234.424 319.52 233.239L320.481 232.399L321.361 232.797C321.844 233.016 322.852 233.428 323.599 233.714C324.923 234.219 324.973 234.258 325.499 235.17C327.858 239.261 329.486 241.722 331.517 244.266C334.073 247.468 336.225 250.902 337.019 253.051C338.17 256.162 341.151 257.777 345.75 257.779C346.805 257.78 349.037 257.863 350.708 257.964C357.159 258.356 361.393 255.552 362.698 250.025C362.802 249.585 362.918 249.239 362.956 249.255C362.993 249.272 363.434 249.474 363.935 249.704C364.852 250.124 366.055 250.435 369.181 251.061C371.61 251.548 373.264 251.943 374.538 252.338C377.248 253.18 379.559 252.812 382.843 251.015C386.175 249.193 386.941 248.226 387.254 245.451C387.614 242.26 388.794 238.004 390.134 235.066C392.677 229.489 392.346 222.618 389.094 213.47C386.438 205.999 384.474 199.129 382.624 190.833L382.302 189.393L383.49 186.433C386.661 178.531 388.107 170.36 388.124 160.248C388.129 157.593 388.184 155.558 388.246 155.725C389.367 158.736 390.147 170.066 389.644 176.035C389.339 179.66 389.343 179.784 389.761 179.844C390.19 179.905 390.374 179.589 390.8 178.057C393.401 168.689 393.277 156.133 390.475 144.975L389.858 142.519L390.419 141.988C390.728 141.695 391.682 140.851 392.538 140.113C394.347 138.555 394.608 138.184 395.173 136.353C396.452 132.203 397.091 130.357 397.745 128.921C398.73 126.762 398.795 126.004 398.155 124.165L397.668 122.767L398.06 122.067C398.275 121.683 398.55 120.835 398.671 120.185C398.793 119.534 399.076 118.499 399.301 117.882C399.984 116.013 400.523 113.687 400.783 111.491C400.92 110.343 401.074 109.079 401.126 108.684L401.221 107.964L401.342 108.604C401.409 108.956 401.516 110.126 401.579 111.204C401.767 114.396 402.521 114.334 403.033 111.084C404.083 104.409 402.844 95.911 399.941 89.8868L399.555 89.0863L399.973 89.5662C402.357 92.3096 405.135 96.7307 406.801 100.435C407.742 102.528 409.165 106.662 409.165 107.304C409.165 107.747 409.591 108.364 409.897 108.364C410.847 108.364 410.749 100.429 409.74 95.6461C407.954 87.1743 402.666 78.8954 395.09 72.7061C394.509 72.232 394.673 72.2761 397.117 73.2561C401.791 75.1327 406.501 77.9787 410.658 81.44C413.196 83.5536 413.746 83.1476 411.941 80.4936C405.637 71.2318 393.889 63.6085 380.776 60.2729C378.98 59.816 377.479 59.1998 375.8 58.2284C374.522 57.4893 374.016 56.5957 373.112 53.4732C372.021 49.7048 370.155 46.254 367.624 43.3245L366.525 42.0527L364.694 42.0143C362.882 41.9749 362.853 41.9807 361.855 42.5211ZM395.318 110.124C395.988 111.842 396.699 114.27 396.91 115.563C397.039 116.35 396.776 115.87 395.779 113.491C395.154 112.001 394.839 111.474 394.094 110.675L393.178 109.69L393.499 109.025C393.676 108.659 393.895 108.163 393.987 107.922L394.154 107.484L394.378 107.884C394.501 108.104 394.924 109.112 395.318 110.124Z" stroke="url(#paint0_linear_2_2)" stroke-width="50" stroke-linejoin="round" mask="url(#path-1-outside-1_2_2)"/>
<defs>
<linearGradient id="paint0_linear_2_2" x1="118" y1="60" x2="363" y2="269" gradientUnits="userSpaceOnUse">
<stop stop-color="white" stop-opacity="0.74"/>
<stop offset="1"/>
</linearGradient>
</defs>
</svg>
