<svg width="400" height="226" viewBox="0 0 400 226" fill="none" xmlns="http://www.w3.org/2000/svg">
<g clip-path="url(#clip0_0_1)">
<path fill-rule="evenodd" clip-rule="evenodd" d="M348.046 0.824C346.747 1.439 345.32 2.402 344.245 3.391C343.123 4.424 343.634 4.379 345.087 3.317C345.727 2.849 346.683 2.247 347.211 1.979L348.173 1.492L346.973 2.636L345.774 3.78L347.246 3.893C348.975 4.026 351.227 4.726 352.7 5.589L353.694 6.172L353.579 5.628C353.515 5.328 353.214 4.54 352.909 3.875C352.604 3.21 352.411 2.667 352.48 2.667C352.87 2.667 354.361 4.747 355.496 6.875C355.973 7.769 356.395 8.5 356.433 8.5C356.604 8.5 355.104 5.76 354.235 4.485C351.426 0.361 350.359 -0.27 348.046 0.824ZM344.214 5.636C343.735 5.738 341.935 7.972 341.554 8.939C341.507 9.058 341.965 9.235 342.781 9.415C344.55 9.804 347.897 11.028 349.898 12.017L351.546 12.832L352.121 12.477C352.99 11.939 353.867 12.004 354.692 12.667C355.219 13.09 355.35 13.142 355.278 12.898C355.004 11.957 354.839 11.14 354.737 10.206C354.45 7.577 348.079 4.81 344.214 5.636ZM341.013 6.631C339.827 7.225 338.395 8.498 338.698 8.689C339.292 9.066 339.92 8.845 340.536 8.042C340.87 7.606 341.341 7.006 341.584 6.708C341.826 6.41 342 6.169 341.97 6.173C341.941 6.176 341.51 6.383 341.013 6.631ZM278.196 18.846C273.961 19.395 272.803 21.977 273.343 29.667C273.625 33.672 274.116 35.986 274.776 36.419C275.212 36.704 275.215 36.703 275.105 36.312C274.394 33.778 274.029 27.04 274.456 24.333L274.6 23.417L274.73 25C275.061 29.021 276.39 33.726 278.29 37.604C279.227 39.516 279.385 39.502 279.528 37.489L279.639 35.922L280.393 35.285L281.147 34.649L280.821 33.888C279.883 31.699 279.128 28.771 278.835 26.177C278.625 24.328 279.105 23.302 281.28 20.947C281.976 20.194 281.986 20.21 280.567 19.817C278.672 19.292 278.856 19.13 281.462 19.029C282.66 18.982 283.288 18.902 283.083 18.821C282.655 18.653 279.564 18.668 278.196 18.846ZM285.847 19.062C285.885 19.096 286.554 19.165 287.333 19.215C288.363 19.282 288.545 19.268 288 19.166C287.237 19.022 285.721 18.949 285.847 19.062ZM282.966 22.292C282.468 22.91 281.786 23.801 281.449 24.27L280.837 25.123L281.005 26.458C281.192 27.956 281.724 30.124 281.962 30.362C282.341 30.741 284.333 29.157 284.333 28.476C284.333 27.709 284.728 27.285 285.958 26.732C286.721 26.388 286.833 26.276 286.833 25.856C286.833 25.001 287.032 24.347 287.42 23.929L287.799 23.52L286.525 22.7C283.674 20.865 284.076 20.912 282.966 22.292ZM134.293 35.175C132.363 36.765 130.979 40.135 129.739 46.256C129.503 47.42 129.086 48.981 128.812 49.725L128.313 51.077L128.743 50.673C129.518 49.945 130.015 48.612 130.185 46.806C130.382 44.71 130.695 43.225 131.262 41.697C131.782 40.292 131.929 40.203 131.573 41.508C131.436 42.008 131.252 43.266 131.163 44.304C131.021 45.963 130.616 47.995 130.252 48.875C130.059 49.341 130.358 49.211 131.219 48.455C132.165 47.623 132.572 46.433 133.171 42.75C133.654 39.777 134.276 36.826 134.657 35.696C135.043 34.552 135.045 34.555 134.293 35.175ZM126.698 58.119C126.486 58.159 126.272 58.299 126.222 58.429C126.173 58.559 126.059 58.62 125.97 58.565C125.683 58.387 125.013 59.197 124.656 60.152C124.238 61.269 123.553 62.591 122.402 64.5C121.599 65.832 118.536 71.369 116.549 75.083C116.058 76 114.824 78.4 113.807 80.417C110.21 87.548 107.829 90.675 102.086 95.809C100.893 96.876 99.879 97.791 99.833 97.842C95.658 102.477 78.2 113.603 59.833 123.336C57.421 124.614 54.782 126.098 51.25 128.16C35.031 137.632 20.083 148.65 10 158.566C6.02001 162.48 1.28201 166.713 0.208007 167.313C0.0520072 167.401 -0.00399284 167.689 0.0310072 168.219L0.0830072 168.997L3.75001 165.992C20.421 152.331 24.501 149.161 30.937 144.871C33.907 142.892 39.998 139.167 40.265 139.167C40.293 139.167 40.751 138.914 41.283 138.605C42.739 137.76 46.775 135.695 59.167 129.454C70.324 123.834 73.107 122.37 78.25 119.414C85.385 115.314 87.359 114.128 91.904 111.214C95.035 109.207 90.744 112.288 86 115.453C83.262 117.28 79.117 119.895 77.292 120.947C74.837 122.363 74.193 122.731 73.417 123.165C72.282 123.799 66.006 127.239 64.667 127.961C64.071 128.282 62.721 129.014 61.667 129.586C59.073 130.994 53.402 134.025 50.75 135.42C41.979 140.033 34.504 144.82 26.667 150.844C25.898 151.435 22.412 154.223 20.705 155.612C19.071 156.942 15.331 160.175 14.181 161.252C13.577 161.817 12.909 162.423 12.696 162.598C11.614 163.488 12.044 163.495 13.693 162.614C23.42 157.418 39.548 152.429 56.917 149.241C62.094 148.291 66.829 147.207 67.189 146.89C67.338 146.759 67.895 145.998 68.426 145.2C72.114 139.663 76.291 135.047 82.013 130.188C83.808 128.664 87.063 125.917 89.247 124.083C104.734 111.085 105.306 110.52 105.129 108.381C105.083 107.826 104.921 107.308 104.698 107.007C104.044 106.122 104.06 106.113 106.5 106.098C109.12 106.081 109.826 105.823 111.445 104.292C113.386 102.456 111.925 105.634 109.73 108.022C107.32 110.643 107.588 113.624 110.188 113.104C111.434 112.855 116.78 113.549 119.148 114.267C119.917 114.501 120.848 114.705 121.217 114.721L121.889 114.75L122.666 112.743C124.193 108.801 126.193 105.055 128.023 102.712C128.824 101.685 128.833 101.66 128.833 100.451C128.833 97.632 129.564 91.664 130.419 87.5C131.54 82.041 131.758 77.44 131.186 71.25C130.65 65.444 130.501 63.135 130.5 60.658C130.5 59.125 130.436 58.336 130.3 58.2C130.106 58.006 127.587 57.949 126.698 58.119ZM124.105 64.344C122.385 68.931 120.874 72.433 119.352 75.36C118.072 77.82 116.559 81.531 115.998 83.583C114.949 87.423 113.965 89.828 112.358 92.473C110.48 95.564 110.382 96.276 111.792 96.577C113.043 96.845 111.944 97.581 109.418 98.168C107.433 98.629 106.787 99.036 104.417 101.319C103.317 102.379 102.646 102.984 102.927 102.665C103.207 102.345 103.676 101.746 103.969 101.333C105.686 98.914 106.486 97.941 108.2 96.194C110.654 93.692 111.779 91.78 112.337 89.167C113.15 85.353 115.097 80.367 116.974 77.289C119.105 73.795 123.704 64.675 124.926 61.521C125.188 60.844 125.426 60.362 125.455 60.448C125.484 60.535 124.876 62.288 124.105 64.344ZM374.534 68.032C374.312 68.255 374.262 68.668 374.458 68.664C374.803 68.657 375.031 68.358 374.887 68.102C374.769 67.891 374.691 67.875 374.534 68.032ZM376.833 68.741C376.833 68.902 377.668 69.97 378.689 71.116L380.544 73.199L381.351 75.364C381.794 76.555 382.396 77.954 382.687 78.473C384.138 81.055 384.252 81.503 383.736 82.59C383.591 82.896 383.504 83.282 383.544 83.448C383.595 83.663 383.728 83.509 384.002 82.917C384.628 81.563 384.52 80.884 383.317 78.593C382.747 77.508 381.924 75.766 381.488 74.722C380.754 72.964 380.589 72.711 379.243 71.297C378.444 70.458 377.575 69.474 377.312 69.11C376.997 68.676 376.833 68.55 376.833 68.741ZM376.833 72.731C376.833 72.79 377.629 74.355 378.602 76.21C379.574 78.065 380.933 80.671 381.623 82C383.591 85.797 384.45 87.234 383.749 85.555C383.38 84.671 382.571 81.797 382.265 80.279C381.948 78.708 381.973 78.755 380.828 77.549C379.727 76.389 378.956 75.426 378.047 74.077C377.41 73.132 376.833 72.493 376.833 72.731ZM316.667 78.167C316.283 78.551 316.255 79.064 316.503 81.155C316.596 81.941 316.739 83.708 316.819 85.083C316.949 87.29 317.026 87.73 317.474 88.833C317.753 89.521 318.554 91.621 319.254 93.5C320.783 97.605 322.226 99.863 325.378 103.083C325.99 103.709 324.209 101.016 322.375 98.543C320.889 96.539 320.858 96.145 322.165 95.936C323.378 95.742 323.465 94.879 322.51 92.531C320.498 87.584 320.006 85.935 320.002 84.118C319.994 80.003 318.139 76.694 316.667 78.167ZM313.456 80.764C313.295 81.504 313.051 83.174 312.914 84.474L312.665 86.837L313.413 89.248C313.825 90.573 314.391 92.616 314.672 93.787C315.457 97.059 315.408 96.993 317.049 96.998C319.053 97.003 319.081 96.236 317.265 91.181C316.375 88.705 315.891 87.073 315.686 85.851C315.382 84.048 315.167 84.223 315.167 86.273C315.167 88.846 314.004 83.619 313.79 80.083C313.755 79.495 313.716 79.574 313.456 80.764ZM289.583 84.442C288.007 84.776 286.22 85.751 285.583 86.624C285.308 87.001 284.771 87.746 284.39 88.279C281.892 91.777 279.311 93.823 276.667 94.4C272.635 95.279 270.203 99.395 270.106 105.5C270.064 108.108 273.605 113.187 279.396 118.83C292.44 131.539 292.428 131.514 293.101 145.583C293.211 147.871 293.223 147.931 293.753 148.667C295.859 151.593 298.27 155.597 300.076 159.167C301.547 162.076 305.478 166.413 310.083 170.207C311.183 171.114 312.871 172.505 313.833 173.299C315.869 174.978 324.152 181.978 326.583 184.073C328.758 185.947 329.131 186.03 329.775 184.784C330.127 184.104 330.169 184.198 327.225 179.041C324.424 174.135 323.796 173.304 322 172.13C318.146 169.612 317.383 168.922 315.372 166.138C314.096 164.37 312.246 161.316 311.254 159.341L310.507 157.853L311.378 157.114C313.679 155.162 316.77 153.77 319.583 153.419C321.327 153.202 321.231 153.423 320.507 151.291C319.331 147.824 315.704 138.239 314.784 136.167C312.499 131.017 309.932 118.346 309.246 108.833C308.705 101.344 304.95 92.54 300.374 88.032C298.382 86.07 298.371 85.999 300.127 86.403C302.114 86.861 304.236 88.128 306.402 90.152L307.221 90.917L306.486 90.02C302.854 85.596 295.53 83.179 289.583 84.442ZM324.391 84.662C323.242 85.137 325.062 90.148 328.901 97.08C329.001 97.262 329.615 98.049 330.264 98.83C330.914 99.611 331.87 100.802 332.389 101.476C332.909 102.15 333.333 102.659 333.333 102.608C333.333 102.258 331.577 99.653 330.382 98.232C329.381 97.041 329.416 96.699 330.542 96.634C332.021 96.549 331.596 94.745 329.313 91.41C328.724 90.55 328.211 89.526 327.854 88.5C326.758 85.345 325.666 84.135 324.391 84.662ZM381.27 87.286C381.001 87.355 380.971 87.478 381.053 88.172C381.138 88.889 381.073 89.121 380.475 90.258C379.084 92.896 378.602 95.051 379.08 96.489C379.412 97.489 379.729 97.449 379.576 96.427C379.488 95.84 379.556 95.547 379.966 94.734C381.094 92.497 381.907 89.548 381.62 88.74C381.519 88.457 381.616 88.329 382.173 88.016C383.19 87.445 382.579 86.95 381.27 87.286ZM311.344 90.167C311.339 91.392 311.451 92.202 311.841 93.75C312.118 94.85 312.39 96.35 312.445 97.083C312.562 98.638 312.638 98.771 313.494 98.916C314.775 99.132 315.635 98.237 315.116 97.226C314.981 96.964 314.599 95.7 314.266 94.417C313.933 93.133 313.442 91.333 313.174 90.417L312.687 88.75L312.677 89.708C312.664 90.936 312.478 90.917 311.854 89.625L311.351 88.583L311.344 90.167ZM378.003 97.747C377.757 98.042 378.149 99.167 378.497 99.167C378.734 99.167 378.698 98.328 378.441 97.864C378.246 97.514 378.205 97.503 378.003 97.747ZM376.5 98.493C376.5 98.973 376.397 99.126 375.792 99.547C375.528 99.732 375.555 99.787 376.091 100.151C376.914 100.711 377.067 100.494 376.825 99.108C376.619 97.921 376.5 97.697 376.5 98.493ZM313.15 100.396C313.375 100.667 314.81 101.412 314.911 101.311C314.944 101.277 314.514 101.001 313.955 100.696C313.396 100.391 313.034 100.256 313.15 100.396ZM372.46 102.495C371.844 103.266 370.832 104.649 370.212 105.57C367.532 109.545 365.676 110.652 361.667 110.667C361.019 110.669 360.786 110.778 359.964 111.46C359.439 111.894 358.596 112.543 358.089 112.901C356.88 113.755 356.898 113.782 358.751 113.921C363.049 114.243 364.043 113.954 366.833 111.571C371.678 107.433 373.108 105.594 373.509 102.988C373.822 100.949 373.732 100.906 372.46 102.495ZM313.506 102.989C313.016 103.904 313.405 107 314.009 107C314.917 107 315.774 104.619 315.195 103.708C314.719 102.957 313.745 102.543 313.506 102.989ZM340.293 103.869C340.113 104.003 340.057 104.164 340.143 104.3C340.252 104.473 340.321 104.466 340.489 104.263C340.794 103.896 340.648 103.604 340.293 103.869ZM342.049 105.523C342.194 106.608 342.559 106.851 342.987 106.149C343.45 105.39 343.425 105.231 342.808 105.016C342.003 104.736 341.948 104.773 342.049 105.523ZM289.342 106.421C290.222 106.876 289.64 107.271 288.378 107.073C286.537 106.785 284.305 107.673 282.6 109.371C281.967 110.001 281.355 110.48 281.241 110.436C281.107 110.385 280.901 110.727 280.668 111.386C280.085 113.034 280.025 113.157 280.011 112.739C279.975 111.631 280.897 109.607 281.952 108.479C283.668 106.645 287.637 105.54 289.342 106.421ZM346.159 107.322C346.981 108.477 349.64 110.408 351.381 111.116C352.772 111.681 353.564 112.218 354.582 113.285C355.713 114.473 356 114.417 356 113.011C356 111.411 355.123 110.612 352.516 109.837C350.934 109.367 348.734 108.399 347.253 107.523C345.87 106.704 345.696 106.672 346.159 107.322ZM289.75 108.291C292.412 109.124 294.107 111.599 293.976 114.46C293.611 122.427 281.753 122.142 281.75 114.167C281.749 109.754 285.537 106.972 289.75 108.291ZM296.028 111.003C298.567 114.411 297.118 121.476 293.362 123.999C289.079 126.876 281.836 122.878 280.496 116.897C280.135 115.288 280.603 115.079 281.292 116.542C285.057 124.537 296.399 121.091 294.596 112.5C294.063 109.962 294.732 109.263 296.028 111.003ZM362.75 120.167C362.567 120.245 362.497 120.315 362.595 120.322C362.693 120.328 363.087 120.602 363.47 120.93C364.226 121.576 364.389 121.414 363.912 120.492C363.654 119.993 363.352 119.908 362.75 120.167ZM364.652 121.849C364.644 121.978 364.649 122.433 364.663 122.861C364.678 123.292 364.573 123.864 364.428 124.144C364.066 124.845 364.087 124.924 364.759 125.339C365.431 125.754 365.387 125.77 365.642 125.017C366.045 123.823 365.807 122.647 365.017 121.932C364.751 121.691 364.663 121.671 364.652 121.849ZM336.125 123.125C336.233 124.539 336.226 124.535 336.739 123.522C337.264 122.486 337.273 122.234 336.792 122.105C336.059 121.909 336.034 121.946 336.125 123.125ZM337.996 123.132C337.631 123.496 337.336 123.934 337.339 124.105C337.344 124.366 337.382 124.351 337.569 124.013C337.692 123.791 338.074 123.452 338.417 123.26C339.039 122.912 339.193 122.648 338.842 122.531C338.741 122.497 338.36 122.767 337.996 123.132ZM345.727 125.299C345.552 125.579 345.645 125.602 347.103 125.639C349.013 125.688 349.414 125.292 347.642 125.107C346.135 124.95 345.932 124.97 345.727 125.299ZM324.868 125.917C322.707 128.371 322.26 130.823 323.372 134.124C323.958 135.866 324.161 136.021 323.815 134.462C323.172 131.561 323.598 127.745 324.717 126.398C325.912 124.959 326.024 124.604 324.868 125.917ZM338.25 125.511C334.429 125.808 333.766 126.088 333.488 127.523C333.252 128.744 333.296 134.167 333.542 134.165C333.656 134.164 334.612 134.054 335.667 133.919C336.721 133.785 339.443 133.584 341.715 133.474L345.847 133.274L345.404 132.92L344.961 132.567L345.12 129.159C345.212 127.187 345.217 125.68 345.131 125.583C344.943 125.37 340.654 125.325 338.25 125.511ZM155 133.006C151.776 133.212 146.447 134.189 146.784 134.511C146.857 134.581 147.704 134.867 148.667 135.145C154.304 136.778 161.479 140.189 166.833 143.78C167.271 144.074 168.866 144.704 170.667 145.295C172.362 145.851 175.192 146.875 176.955 147.57C178.717 148.265 180.667 149.024 181.288 149.257C182.853 149.845 184.667 150.692 184.667 150.835C184.667 150.901 183.785 150.622 182.708 150.214C179.904 149.154 172.537 147.408 172.217 147.728C172.187 147.757 172.633 148.186 173.207 148.681C174.823 150.076 177.344 152.541 177.537 152.914C177.739 153.307 177.591 153.184 175.25 151.003C160.646 137.401 137.233 130.738 119.167 135.042L116.917 135.578L119 135.71C130.339 136.43 140.469 143.075 155.523 159.667C159.966 164.564 164.008 169.398 166.994 173.384C171.063 178.817 178.807 186.451 183.3 189.459C191.486 194.938 188.69 200.139 176.333 202.418C175.554 202.562 174.054 202.92 173 203.214L171.083 203.75L172.083 203.872C172.633 203.939 175.221 203.95 177.833 203.895C183.792 203.771 188.07 204.275 193 205.683C196.584 206.706 201.886 206.957 205.333 206.265C206.021 206.127 207.473 205.827 208.56 205.599C214.742 204.299 224.165 204.297 231.821 205.593C237.496 206.553 242.637 205.64 246.917 202.911C248.92 201.633 251.161 200.35 253.667 199.046C254.904 198.402 256.859 197.38 258.011 196.775C259.162 196.17 260.625 195.48 261.261 195.241C263.718 194.318 265.63 192.026 266.603 188.836C267.104 187.194 267.739 185.871 268.786 184.286C269.33 183.463 269.6 182.833 269.778 181.975C271.211 175.05 276.104 168.319 282.204 164.882L283.326 164.25L283.329 162.895C283.334 161.133 283.245 161.05 281.621 161.318C280.959 161.428 279.443 161.587 278.254 161.672C277.065 161.757 275.014 161.957 273.696 162.115L271.301 162.404L270.84 163.077C270.079 164.188 269.739 164.973 268.999 167.333C268.227 169.795 266.891 173 266.638 173C266.55 173 266.522 172.861 266.575 172.692C266.961 171.477 267.835 165.179 267.828 163.667L267.824 162.917L267.158 164.322C266.791 165.096 266.376 166.127 266.234 166.614C265.835 167.986 265.704 167.676 265.782 165.542L265.853 163.583L265.523 163.961C265.341 164.169 265.063 164.694 264.905 165.128C264.747 165.562 264.433 166.367 264.207 166.917C263.98 167.467 263.438 169.117 263.001 170.583C262.115 173.562 261.368 175.634 260.798 176.703L260.417 177.417L260.308 173.5C260.21 169.942 259.961 166.739 259.768 166.545C259.637 166.415 257 167.861 257.003 168.06C257.005 168.165 257.343 169.262 257.753 170.5C258.855 173.825 258.58 173.705 257.068 170.2C256.185 168.154 256.298 168.21 254.882 169.105L254.014 169.654L254.269 170.535C254.88 172.644 255.391 174.202 256.024 175.886C256.396 176.877 256.666 177.723 256.624 177.765C256.451 177.938 253.73 174.04 252.646 172.066C251.787 170.5 251.97 170.54 250.215 171.535L248.709 172.39L248.864 172.987C248.95 173.315 249.323 174.507 249.694 175.635C250.065 176.764 250.332 177.723 250.289 177.767C250.166 177.889 249.281 176.421 248.396 174.63L247.597 173.01L246.507 173.612C244.959 174.467 245.03 174.367 245.197 175.458C245.329 176.32 246.038 179.472 246.266 180.208C246.595 181.276 245.046 179.347 243.621 176.917C243.244 176.275 242.922 175.727 242.903 175.699C242.885 175.67 241.343 176.433 239.476 177.393C231.08 181.713 230.262 181.808 227.938 178.726C225.836 175.94 225.616 176.406 230.986 172.275C234.558 169.528 234.954 169.265 235.45 169.314C235.56 169.324 236.551 170.515 237.652 171.958C238.753 173.402 239.942 174.914 240.294 175.318L240.934 176.052L241.717 175.594C242.642 175.052 242.628 175.13 242.012 173.988C241.485 173.013 240.057 169.491 239.583 168C239.182 166.736 239.247 166.738 237.668 167.931C236.021 169.175 235.501 169.342 236.83 168.201C237.332 167.77 238.029 167.154 238.38 166.833L239.017 166.25L238.509 164.284C237.742 161.31 237.207 157.921 236.796 153.417C236.768 153.11 236.575 153.721 236.297 155C235.545 158.457 235.454 159.281 235.44 162.699C235.432 164.505 235.398 165.953 235.363 165.918C234.72 165.275 233.409 155.024 233.286 149.672L233.25 148.095L232.378 149.271C230.555 151.733 229.515 153.892 228.832 156.631C228.571 157.679 228.391 158.125 228.277 158.01C228.062 157.795 228.082 153.079 228.303 151.833C228.508 150.681 228.549 150.7 227.411 151.427C226.096 152.269 224.305 153.064 222.734 153.504C219.57 154.39 216.431 156.619 213.88 159.791C212.449 161.57 212.399 161.607 212.866 160.542C213.449 159.209 214.557 157.64 215.766 156.435C216.623 155.58 216.811 155.32 216.5 155.415C214.393 156.06 211.689 158.95 209.65 162.739C208.865 164.196 208.663 164.187 209.078 162.712C209.637 160.723 210.366 159.369 211.633 157.966C212.032 157.526 212.135 157.315 211.976 157.265C211.512 157.119 208.692 156.833 207.707 156.833C207.146 156.833 206.647 156.769 206.598 156.69C206.468 156.479 208.398 156.336 211.387 156.335L214.023 156.333L214.763 155.824C215.799 155.112 216.442 154.871 218.033 154.601C218.815 154.468 219.996 154.106 220.75 153.768C221.483 153.44 222.196 153.164 222.333 153.155C222.471 153.147 222.358 153.037 222.083 152.911C221.343 152.572 220.386 152.619 218.885 153.068C217.632 153.443 217.477 153.455 216.481 153.249C214.034 152.743 212.209 152.801 210.938 153.426C210.366 153.707 209.84 153.406 203.68 149.268C194.034 142.788 183.073 137.151 176.275 135.175C169.549 133.22 162.644 132.516 155 133.006ZM323.846 136.305C323.839 136.518 323.453 137.707 322.989 138.946C322.309 140.761 322.045 141.795 322.383 141.319C322.915 140.571 324.124 136.584 323.951 136.148C323.898 136.014 323.854 136.08 323.846 136.305ZM115.42 136.35C113.493 136.509 112.77 136.72 110.567 137.771C102.213 141.754 96.579 146.694 94.223 152.103C93.745 153.199 93.416 153.516 93.595 152.708C93.835 151.623 94.217 150.648 94.744 149.771C95.418 148.652 95.287 148.612 93.937 149.52C92.111 150.748 90.657 152.398 89.907 154.093C89.489 155.038 89.408 154.428 89.798 153.272L90.113 152.338L89.536 152.23C87.515 151.851 81.975 152.423 78.128 153.407C74.986 154.212 71.263 154.917 67.5 155.421C60.851 156.312 57.024 156.847 54.917 157.18C50 157.957 44.445 158.88 42.333 159.27C41.096 159.499 39.108 159.864 37.917 160.082C32.028 161.158 22.298 163.426 19.981 164.263C17.566 165.134 11.763 166.719 9.00001 167.26C7.55201 167.544 3.14501 168.703 1.12501 169.33C0.0130072 169.676 7.15628e-06 169.687 7.15628e-06 170.272V170.865L0.838007 170.749C1.76101 170.622 2.34201 170.466 5.14701 169.587C6.19101 169.26 8.06601 168.81 9.31401 168.587C10.562 168.364 12.708 167.983 14.083 167.74C19.279 166.824 25.219 165.404 32.167 163.414C39.707 161.255 47.574 159.46 54.417 158.335C56.158 158.049 59.308 157.487 61.417 157.086C70.663 155.328 82.674 153.452 82.947 153.725C82.977 153.755 82.57 153.876 82.043 153.993C81.515 154.11 80.264 154.575 79.263 155.026C74.991 156.95 72.189 157.571 66.583 157.838C55.589 158.361 45.843 160.14 39.167 162.842C28.448 167.179 17.648 169.861 8.97201 170.338C5.21001 170.546 1.98001 170.955 0.292007 171.439C-0.0309929 171.531 -0.175993 199.5 0.146007 199.5C0.226007 199.5 0.610007 199.387 1.00001 199.25C2.65101 198.668 5.84601 198.992 9.16701 200.079C12.068 201.03 14.904 201.531 18.583 201.745C20.49 201.856 24.437 202.621 26.708 203.32C30.469 204.478 32.692 204.464 35.417 203.265C41.316 200.669 48.724 196.736 53.5 193.664C64.312 186.709 70.657 181.503 80.006 171.917C84.149 167.669 84.781 166.969 86.248 165C90.46 159.351 95.789 153.345 102.663 146.499C107.312 141.87 112.913 138.055 117.111 136.657C118.735 136.117 118.584 136.09 115.42 136.35ZM129.613 139.522C124.309 140.203 117.771 143.094 112.167 147.236C106.183 151.657 95.619 162.345 88.511 171.167C84.142 176.59 74.677 186.295 68.738 191.44C67.907 192.161 66.369 193.506 65.322 194.43C62.139 197.236 58.675 199.862 54.25 202.821C52.967 203.679 51.842 204.455 51.75 204.545C51.641 204.652 53.432 204.676 56.935 204.614L62.287 204.52L63.935 203.835C70.337 201.174 77.642 196.167 84.818 189.522C90.537 184.225 99.657 175.15 102.167 172.259C115.8 156.553 128.085 147.86 138.96 146.226L140.887 145.936L140.079 145.205C138.297 143.591 131.246 139.147 130.796 139.354C130.771 139.366 130.238 139.441 129.613 139.522ZM329.492 141.375C329.194 141.856 328.659 142.678 328.303 143.2C326.174 146.33 325.746 149.926 327.156 152.833C327.752 154.06 327.746 154.202 327.233 150.917C326.678 147.368 327.157 145.576 329.87 141.042C330.048 140.744 330.158 140.5 330.114 140.5C330.071 140.5 329.791 140.894 329.492 141.375ZM339.26 143.301C339.205 144.006 339.079 145.523 338.979 146.67C338.633 150.672 340.058 156.289 343.558 164.723C344.669 167.401 344.594 167.498 344.831 163.081C345.187 156.443 345.663 148.247 345.755 147.153L345.848 146.056L344.833 145.43C344.275 145.086 343.353 144.429 342.784 143.97C341.825 143.197 340.701 142.528 339.753 142.168C339.366 142.021 339.359 142.038 339.26 143.301ZM346.833 151.278C346.833 156.677 346.583 163.6 346.25 167.454L346.016 170.157L346.485 171.19L346.954 172.222L347.14 171.403C348.366 166.002 348.971 160.357 349.114 152.973L349.213 147.862L348.148 147.307C347.563 147.002 347.027 146.727 346.958 146.696C346.89 146.664 346.833 148.726 346.833 151.278ZM255.796 148.556C254.899 150.913 254.73 157.898 255.48 161.599C255.888 163.613 256.478 166.306 256.598 166.699C256.685 166.988 257.526 166.536 259.122 165.344C259.767 164.862 259.801 165.27 258.641 159.5C258.19 157.254 257.493 153.63 257.093 151.447C256.693 149.263 256.339 147.451 256.308 147.42C256.276 147.388 256.046 147.9 255.796 148.556ZM365.845 147.838C365.812 149.52 367.2 156.072 368.608 160.888C368.774 161.456 368.816 161.077 368.66 160.412C368.015 157.657 367.194 153.876 366.581 150.84C366.182 148.866 365.851 147.514 365.845 147.838ZM65.167 147.935C63.171 148.438 61.107 148.863 58 149.413C52.429 150.398 50.481 150.8 44.917 152.11C31.126 155.359 18.082 160.158 10.667 164.711C9.52101 165.414 8.00401 166.741 8.17701 166.889C8.40001 167.079 15.587 165.161 20.333 163.645C23.978 162.48 27.992 161.457 32.583 160.522C40.321 158.947 45.749 158.023 56.474 156.457L59.032 156.083L61.058 154C63.131 151.869 66.5 148.028 66.5 147.796C66.5 147.63 66.288 147.652 65.167 147.935ZM92.965 150.961C92.318 151.635 90.833 153.793 90.833 154.059C90.833 154.149 90.789 154.178 90.734 154.123C90.68 154.069 90.914 153.495 91.254 152.848C91.893 151.632 93.24 150.018 93.445 150.223C93.509 150.287 93.293 150.619 92.965 150.961ZM293.333 151.076C293.333 151.669 295.919 155.541 298.402 158.667C303.755 165.403 307.97 169.665 313.25 173.675C316.265 175.964 320.56 179.503 322.75 181.5C324.578 183.167 326.521 184.774 327.937 185.788L329.123 186.639L329.885 185.861C330.586 185.144 330.629 185.053 330.433 184.692L330.221 184.301L330.004 184.823C329.298 186.528 328.947 186.383 324.406 182.5C317.473 176.572 315.847 175.207 311.667 171.806C305.853 167.075 301.902 162.818 297.25 156.269C293.999 151.692 293.333 150.81 293.333 151.076ZM209.121 152.281C208.883 152.344 208.945 152.44 209.44 152.777C210.013 153.165 210.107 153.18 210.782 152.991C212.029 152.642 211.896 152.539 209.833 152.259C209.604 152.228 209.284 152.238 209.121 152.281ZM146.083 152.671C139.398 153.806 131.25 157.532 124.75 162.426C121.294 165.028 120.423 165.862 111.064 175.519C104.048 182.758 92.764 193.508 88.05 197.442C87.298 198.07 85.835 199.322 84.8 200.224C83.764 201.127 82.104 202.477 81.109 203.224L79.301 204.583L81.442 204.637C83.744 204.695 88.351 204.479 93.833 204.057C100.292 203.559 106.379 203.925 116.25 205.406C124.818 206.691 136.667 205.757 146.872 202.991C152.721 201.406 159.114 201.294 165 202.673C165.779 202.856 167.145 203.161 168.035 203.352L169.653 203.699L171.202 203.189C172.856 202.645 174.594 202.232 177.667 201.653C188.613 199.59 190.508 194.466 182.25 189.258C178.849 187.113 171.37 179.651 166.813 173.858C165.901 172.698 164.539 170.969 163.786 170.015C159.97 165.18 149.438 153.533 148 152.557C147.826 152.439 147.242 152.474 146.083 152.671ZM325.508 154.196C325.504 154.349 325.309 154.702 325.075 154.979C324.674 155.456 324.664 155.512 324.9 155.968C325.181 156.511 326.97 161.83 327.598 163.99C328.087 165.669 328.046 165.617 328.594 165.258C329.17 164.881 329.147 164.764 327.497 159.667C326.081 155.292 325.52 153.75 325.508 154.196ZM224.333 154.414C224.333 154.629 222.229 155.517 220.987 155.827C219.269 156.254 217.823 157.088 216.159 158.612C214.923 159.744 214.92 159.746 215.569 158.917C217.908 155.926 219.215 155.002 221.118 154.993C222.347 154.987 223.571 154.741 224.292 154.356C224.315 154.343 224.333 154.37 224.333 154.414ZM271.878 155.917C271.166 156.547 271.299 157.043 272.25 157.306C274.238 157.856 283.141 157.719 285.18 157.108L285.917 156.886L284.75 156.962C283.273 157.057 282.249 156.783 281.576 156.11L281.049 155.583H276.652C272.491 155.583 272.234 155.601 271.878 155.917ZM319.5 155.59C319.5 155.639 319.64 155.958 319.812 156.298C319.984 156.638 320.171 157.104 320.228 157.333C320.285 157.563 320.112 157.308 319.843 156.769L319.353 155.787L319.116 156.352C318.986 156.663 318.936 156.992 319.005 157.083C319.073 157.175 319.55 157.839 320.065 158.559C320.579 159.279 321 159.829 321 159.781C321 159.733 320.85 159.344 320.667 158.917C320.286 158.03 320.229 157.533 320.582 158.182C320.923 158.81 321.683 160.873 321.602 160.953C321.565 160.991 321.229 160.586 320.857 160.053C320.485 159.519 319.865 158.644 319.479 158.106L318.777 157.129L318.02 157.233C316.92 157.384 316.916 157.408 317.665 159.912C318.542 162.841 318.48 162.845 316.919 159.965C315.138 156.679 315.499 156.871 313.137 157.951C311.729 158.594 311.724 158.599 312.057 159.088C312.18 159.269 312.552 159.915 312.884 160.524C314.966 164.349 317.472 168.424 318.112 169.027C318.721 169.6 322.282 172 322.523 172C322.81 172 324.683 173.397 325.35 174.109C325.68 174.462 326.908 176.346 328.078 178.297C332.769 186.118 331.99 183.495 323.34 162.333C322.684 160.729 321.795 158.535 321.365 157.458C320.592 155.52 320.578 155.5 320.042 155.5C319.744 155.5 319.5 155.54 319.5 155.59ZM214.212 157.276C213.944 157.384 212.003 159.739 211.512 160.55C211.301 160.899 211.096 161.152 211.056 161.112C210.727 160.782 213.669 157.14 214.232 157.18C214.346 157.188 214.339 157.224 214.212 157.276ZM274.417 158.507C273.317 158.57 272.068 158.632 271.643 158.644L270.868 158.667L270.805 159.333C270.724 160.183 270.845 160.188 273.303 159.433C274.319 159.121 275.678 158.777 276.325 158.668C277.565 158.459 277.867 158.314 276.958 158.363C276.66 158.379 275.517 158.443 274.417 158.507ZM253.35 161.373C253.335 163.002 253.766 168.152 253.932 168.32C254.017 168.406 255.658 167.649 255.766 167.474C255.809 167.404 255.358 165.863 254.765 164.049C254.171 162.234 253.614 160.487 253.526 160.167C253.397 159.693 253.364 159.92 253.35 161.373ZM247.435 161.863C247.217 164.555 247.865 170.482 248.487 171.481C248.642 171.729 249.879 171.115 250.908 170.278L251.399 169.879L250.464 167.814C249.25 165.135 248.972 164.453 248.196 162.263L247.55 160.443L247.435 161.863ZM354.471 167.167C354.583 175.753 354.13 185.054 353.315 190.888C352.883 193.977 352.985 194.248 353.466 191.29C354.756 183.351 355.179 176.264 354.831 168.417C354.533 161.706 354.393 161.219 354.471 167.167ZM283.083 164.697C282.9 164.8 282.112 165.342 281.333 165.901L279.917 166.917L280.888 167.021C282.328 167.176 282.366 167.353 281.141 168.178C280.559 168.57 279.538 169.298 278.872 169.795C277.535 170.795 277.077 170.85 277.202 169.998C277.307 169.285 277.142 169.369 276.127 170.542C272.773 174.419 270.785 178.406 269.843 183.143C269.272 186.018 269.578 187.029 271.684 189.22C273.026 190.617 273.266 190.59 272.982 189.075C272.665 187.38 272.885 183.048 273.385 181.138C274.99 175.012 278.902 170.484 284.309 168.495C285.761 167.961 285.785 167.899 285.105 166.422C284.38 164.843 283.762 164.316 283.083 164.697ZM244.91 166.095C244.764 167.638 244.931 173.165 245.129 173.362C245.286 173.52 247.167 172.39 247.167 172.138C247.167 172.045 246.907 171.207 246.59 170.276C246.272 169.345 245.792 167.726 245.523 166.678L245.034 164.773L244.91 166.095ZM284.416 168.902C276.529 171.94 271.893 180.779 273.569 189.583C274.267 193.251 283.781 197.361 288.638 196.093C295.092 194.408 295.826 189.386 291.209 178.505C289.786 175.149 286.039 168.487 285.588 168.508C285.494 168.513 284.966 168.69 284.416 168.902ZM328.59 171.989C328.537 172.075 328.786 172.881 329.143 173.781C329.753 175.32 331.317 179.969 331.908 182C332.054 182.504 332.322 183.104 332.503 183.333L332.832 183.75L332.678 183.25C332.593 182.975 332.171 181.55 331.741 180.083C331.311 178.617 330.791 176.929 330.586 176.333C330.38 175.737 329.959 174.481 329.649 173.542C329.135 171.982 328.851 171.566 328.59 171.989ZM372.723 175.083C373.129 176.461 374.044 179.441 374.335 180.333C374.529 180.929 374.986 182.617 375.35 184.083C375.713 185.55 376.196 187.387 376.422 188.167L376.833 189.583L376.74 188.583C376.509 186.113 375.431 182.202 373.501 176.837C372.897 175.157 372.445 174.139 372.723 175.083ZM286.133 175.68C288.416 176.476 288.483 182.167 286.209 182.167C284.393 182.167 281.832 179.853 281.834 178.215C281.836 176.549 284.358 175.061 286.133 175.68ZM237.833 176.394C236.296 177.283 234.165 178.187 233.169 178.372L232.224 178.548L231.793 179.524C231.466 180.264 231.418 180.5 231.594 180.5C232.273 180.5 240.134 176.957 240.396 176.533C240.856 175.789 239.049 175.69 237.833 176.394ZM227.994 176.32C226.695 176.575 226.697 176.591 228.344 178.743C229.859 180.725 229.905 180.746 230.717 179.848C231.813 178.634 231.813 178.638 230.633 177.331C229.513 176.092 229.394 176.046 227.994 176.32ZM305.248 194.669C303.42 197.307 299.412 200.133 296.253 201.01C294.173 201.588 287.883 201.374 284.201 200.6C281.9 200.116 282.03 200.136 282.5 200.341C285.043 201.452 293.852 202.108 296.833 201.407C300 200.664 304.126 197.446 305.656 194.527C306.003 193.866 305.742 193.957 305.248 194.669ZM260.333 196.421C257.429 197.235 254.006 199.232 254.242 199.976C254.5 200.788 255.026 200.777 256.426 199.927C258.031 198.953 260.1 198.089 261.976 197.61C263.216 197.293 263.424 197.189 263.471 196.862C263.608 195.908 262.645 195.773 260.333 196.421ZM304.24 197.588C304.501 197.786 305.854 198.354 308.309 199.296C308.486 199.364 308.48 199.277 308.279 198.889C308.057 198.461 307.879 198.369 306.936 198.195C306.337 198.085 305.501 197.846 305.077 197.664C304.174 197.277 303.781 197.241 304.24 197.588ZM323.319 201.958C324.48 204.226 324.813 205.528 325.423 210.193C326.503 218.448 327.512 219.695 333.192 219.802C336.463 219.864 337.082 219.738 338.095 218.805C339.981 217.067 340.024 214.814 338.224 212.067L337.956 211.659L337.728 212.098C337.603 212.34 337.488 212.736 337.474 212.977C337.459 213.219 337.393 212.404 337.328 211.167C337.197 208.723 336.963 207.865 335.959 206.167L335.417 205.25L335.333 206.557L335.25 207.864L334.945 206.309C334.608 204.597 334.345 203.916 334.341 204.75C334.337 205.652 334.662 208.391 334.931 209.722C335.076 210.44 335.156 211.066 335.11 211.112C334.78 211.442 333.5 205.639 333.5 203.817C333.5 202.296 331.644 201.125 328.639 200.75L327.707 200.633L327.605 201.275C327.171 204.011 327.347 210.732 327.934 213.806C328.234 215.382 328.236 215.372 327.744 214.551C326.49 212.458 325.858 209.51 325.661 204.833C325.472 200.352 325.599 200.667 323.976 200.667H322.657L323.319 201.958Z" fill="black"/>
<path fill-rule="evenodd" clip-rule="evenodd" d="M331.549 9.512C329.364 9.88 326.392 10.802 324.777 11.613L323.637 12.186L324.686 12.82C326.159 13.71 326.076 13.806 324.127 13.465C314.009 11.692 300.623 15.265 294.135 21.47L293.353 22.218L292.175 22.183C290.207 22.126 290.559 22.843 294.491 26.906C295.55 28 296.192 28.758 295.917 28.591C294.762 27.888 293.302 26.778 291.869 25.514L290.343 24.167H289.025C287.153 24.167 287.078 24.304 287.998 26.05C289.364 28.643 290.898 31.257 292.369 33.5C293.817 35.708 293.763 35.685 291.75 33.232C289.929 31.013 289.374 30.265 288.364 28.667C287.242 26.891 286.972 26.769 285.606 27.417C284.873 27.765 284.717 28.041 284.966 28.553C285.063 28.753 285.229 29.442 285.335 30.083C285.441 30.725 285.742 31.842 286.003 32.566C286.57 34.138 286.331 33.947 285.188 31.917C284.723 31.092 284.275 30.304 284.192 30.167C284.013 29.871 282.853 30.596 282.29 31.355C281.385 32.575 285.305 39.191 291.855 47.5C292.614 48.463 292.516 48.389 290.972 46.833C288.299 44.141 285.327 40.451 282.884 36.792C281.642 34.931 281.679 34.948 280.8 35.827C280.018 36.609 280.002 36.499 281.298 39.144C282.438 41.472 284.075 43.972 285.649 45.792C287.378 47.789 286.87 47.476 284.567 45.125C282.439 42.952 281.656 42.037 280.511 40.382L279.795 39.347L279.15 39.882C278.358 40.54 278.356 40.633 279.103 42.819C280.79 47.762 284.832 54.228 290.15 60.493L291.912 62.57L292.119 60.598C292.323 58.656 292.321 58.62 291.955 58.171C289.038 54.595 287.169 51.762 284.752 47.252C283.608 45.116 283.607 44.906 284.748 46.292C287.572 49.721 292.985 54.924 293.186 54.401C293.253 54.226 293.614 53.125 293.987 51.953C294.36 50.781 295.04 48.981 295.499 47.954L296.332 46.085L294.577 44.44C292.803 42.778 291.104 40.751 290.255 39.284C289.632 38.208 289.793 38.151 290.572 39.173C291.851 40.85 296.298 44.668 296.972 44.666C297.033 44.666 297.288 44.303 297.537 43.858C298.003 43.03 299.598 40.617 300.484 39.403L300.98 38.722L299.877 37.403C297.547 34.617 294.448 30.189 293.005 27.583L292.451 26.583L293.266 27.333C293.715 27.746 294.87 28.838 295.833 29.76C298.105 31.936 303.001 35.833 303.462 35.833C303.545 35.833 303.874 35.552 304.193 35.208C304.512 34.865 305.32 34.078 305.988 33.46C307.011 32.515 307.154 32.319 306.893 32.225C303.759 31.098 300.597 29.261 298.5 27.351C297.494 26.434 297.568 26.191 298.602 27.018C300.211 28.306 302.892 29.751 305.791 30.893C307.786 31.679 307.981 31.668 309.313 30.689C311.924 28.771 315.333 26.628 315.333 26.906C315.333 26.961 314.79 27.356 314.125 27.783C303.352 34.699 295.838 45.181 293.504 56.55C293.133 58.356 292.889 60.231 293.174 59.083C295.09 51.373 300.463 43.201 306.833 38.31C308.775 36.819 308.909 36.775 307.742 38.014C301.023 45.143 296.5 57.223 296.5 68.037C296.5 69.766 296.587 69.654 296.907 67.512C297.388 64.291 298.295 61.177 299.754 57.731C300.438 56.114 300.772 55.601 300.608 56.417C299.322 62.823 298.814 70.581 299.397 74.917L299.599 76.417L299.704 73.333C300.056 63.035 303.823 54.123 310.71 47.292C312.459 45.556 313.199 45.015 312.532 45.958C310.281 49.142 307.51 57.28 306.73 63C306.381 65.554 306.311 73.292 306.62 75.083L306.793 76.083L306.814 74.333C306.865 70.064 308.332 63.845 310.323 59.458C310.834 58.333 310.851 58.471 310.397 60.034C308.592 66.242 308.643 76.235 310.519 83.833C310.802 84.979 311.082 86.005 311.142 86.112C311.201 86.22 311.256 84.945 311.264 83.279C311.289 77.672 312.624 71.504 314.686 67.462C315.198 66.458 315.215 66.778 314.752 68.684C314.187 71.004 313.79 74.145 313.891 75.489C314.108 78.378 314.527 82.749 314.593 82.815C314.758 82.981 314.826 82.652 315.002 80.827C315.733 73.248 316.667 69.206 319.009 63.486C320.428 60.023 324.329 52.773 324.618 53.062C324.66 53.104 324.62 53.276 324.53 53.444C323.003 56.3 321.398 69.094 321.92 74.25C322.047 75.506 322.063 75.545 322.186 74.917C322.258 74.55 322.436 73.725 322.581 73.083C322.725 72.442 322.997 71.129 323.183 70.167C324.767 61.997 328.011 53.39 332.27 46.056C333.453 44.018 333.642 43.855 333.356 45.116C333.256 45.556 333.1 46.592 333.009 47.417C332.919 48.242 332.694 50.145 332.51 51.645C332.326 53.146 332.134 55.471 332.083 56.812C331.946 60.417 331.667 65.19 331.566 65.667C331.488 66.038 331.506 66.056 331.729 65.833C331.966 65.598 333.833 62.567 333.833 62.418C333.833 62.379 334.044 61.988 334.302 61.549C336.913 57.092 340.346 47.163 341.255 41.436C341.59 39.322 341.666 39.459 341.669 42.181C341.674 46.395 342.102 51.267 342.737 54.333C342.86 54.929 343.087 55.995 343.241 56.702C343.395 57.408 343.615 58.758 343.729 59.702L343.937 61.417L344.462 59.25C345.272 55.907 346.031 51.589 346.126 49.781C346.225 47.913 346.296 47.91 346.886 49.75C349.391 57.553 349.766 69.98 347.726 77.5C347.635 77.833 347.764 77.749 348.367 77.083C353.952 70.916 357.836 62.809 358.589 55.75C358.855 53.262 359.004 55.529 358.836 59.5C358.628 64.413 358.072 68.068 356.988 71.643C356.552 73.08 356.568 73.084 357.422 71.75C360.866 66.37 362.802 57.406 361.94 50.833C361.859 50.217 361.873 50.001 361.982 50.174C362.24 50.583 362.67 53.351 362.831 55.643C362.99 57.905 363.335 60.167 363.522 60.167C363.729 60.167 363.917 57.307 363.906 54.333C363.877 46.833 360.901 38.601 355.736 31.739C354.632 30.272 354.585 30.023 355.598 31.007C358.679 33.999 361.74 38.737 363.721 43.583C364.542 45.591 366 50.136 366 50.689C366 50.88 366.472 51.609 367.05 52.31C369.999 55.888 372.687 60.53 374.671 65.471C375.387 67.252 375.406 67.217 375.165 64.583C374.482 57.128 370.944 48.323 366.275 42.458C365.303 41.237 365.996 41.663 367.614 43.281C371.872 47.538 375.914 54.361 378.605 61.833C378.918 62.704 379.539 64.017 379.983 64.75C381.225 66.799 382.163 68.762 383.247 71.583C383.607 72.52 384.334 67.693 384.33 64.395C384.322 57.948 381.564 48.336 378.466 43.956C377.736 42.923 378.341 43.193 379.329 44.341C380.776 46.022 382.261 48.332 383.674 51.098C385.012 53.718 385.037 53.471 383.808 49.75C382.376 45.416 379.785 40.721 376.96 37.343C375.589 35.705 375.651 35.686 377.582 37.157C382.973 41.263 388.283 47.407 391.991 53.831C392.546 54.792 393 55.526 393 55.462C393 54.677 391.72 50.348 390.837 48.145C387.505 39.838 380.016 31.348 371.532 26.261C370.275 25.507 370.298 25.42 371.691 25.666C379.64 27.066 389.099 31.855 395.169 37.554C395.675 38.028 396.274 38.567 396.5 38.75L396.911 39.083L396.669 38.75C390.96 30.871 377.031 22.226 365.642 19.494C365.151 19.376 364.234 19.067 363.602 18.807C362.971 18.546 362.249 18.333 361.998 18.333C360.694 18.333 359.412 17.522 356.741 15.006C354.096 12.514 353.363 12.226 351.964 13.126C350.392 14.139 348.503 15.543 347 16.818C346.129 17.556 345.343 18.162 345.254 18.164C344.997 18.168 347.567 15.65 348.747 14.74C350.204 13.616 350.346 13.835 346.84 11.795C342.732 9.405 337.141 8.571 331.549 9.512ZM337.38 13.023C339.008 13.844 341.942 15.818 343.583 17.198C344.882 18.289 345.575 19.003 347.989 21.734C348.591 22.416 348.205 22.157 346.094 20.462C345.08 19.648 343.584 18.526 342.771 17.968C340.964 16.729 338.01 14.506 337.018 13.639C336.234 12.954 335.375 12.793 334.614 13.189C333.323 13.861 329.52 17.583 328.408 19.262C327.072 21.281 325.713 22.405 323.666 23.182C322.531 23.614 322.63 23.383 323.921 22.587C325.485 21.623 327.175 20.107 328.397 18.574C329.501 17.188 332.919 13.813 334.067 12.975C334.978 12.309 335.993 12.324 337.38 13.023ZM260.747 32.678C262.406 32.909 264.902 33.565 266.435 34.172C269.614 35.43 274.356 38.373 271.651 37.408C269.617 36.683 268.283 36.483 265.083 36.422C263.342 36.388 262.179 36.391 262.5 36.429C262.821 36.466 263.898 36.58 264.894 36.681C267.01 36.897 270.182 37.661 271.496 38.271C272.002 38.506 272.792 38.812 273.25 38.951C273.708 39.09 274.608 39.476 275.25 39.809C275.892 40.142 276.483 40.443 276.564 40.478C277.561 40.913 274.606 37.95 272.841 36.744C272.196 36.303 271.699 35.912 271.735 35.876C271.827 35.784 274.503 37.127 274.917 37.472L275.25 37.75L274.917 37.354C272.866 34.919 266.873 32.748 261.75 32.584C259.832 32.523 259.717 32.534 260.747 32.678ZM267.083 40.507C265.154 40.809 262.898 41.54 260.858 42.526C258.943 43.451 258.123 44.019 259.599 43.397C263.023 41.956 268.881 41.369 272.667 42.089C273.815 42.307 274.817 42.667 274.276 42.667C273.858 42.667 271.376 43.25 270.25 43.612C264.308 45.526 259.499 50.316 257.088 56.722C256.571 58.094 256.612 58.102 257.466 56.792C261.856 50.055 268.439 46.123 275.227 46.183C278.01 46.208 278.184 46.306 276.75 47.035C272.648 49.123 269.718 53.377 268.415 59.14C267.915 61.351 268.215 68.456 269.097 75.25C269.594 79.084 269.643 79.9 269.483 81.632C269.063 86.194 267.316 90.037 264.582 92.417C260.137 96.286 246.62 113.612 242.739 120.417C242.159 121.432 240.918 123.476 240.653 123.851C236.519 129.69 233.692 143.084 234.325 153.828C234.611 158.679 234.834 160.059 234.731 156.333C234.553 149.964 235.538 143.574 237.476 138.522C238.142 136.787 238.66 135.867 238.328 137.011C235.46 146.881 237.839 164.76 243.372 174.914C243.95 175.976 243.946 175.892 243.326 174.073C237.566 157.174 239.517 136.882 248.467 120.583C250.044 117.712 250.508 117.23 249.731 119.272C248.648 122.115 248.285 123.209 247.832 125C243.782 140.998 245.059 155.294 251.724 168.546C253.092 171.267 253.446 171.791 252.757 170.075C250.535 164.545 249.32 155.921 249.823 149.25C250.127 145.23 251.501 138.667 252.039 138.667C252.129 138.667 252.158 138.781 252.105 138.921C251.344 140.903 252.54 155.458 253.675 158.039C253.837 158.408 253.839 158.407 253.763 158C252.989 153.894 253.407 142.648 254.518 137.674C254.639 137.132 254.613 136.341 254.424 134.757C252.853 121.582 253.961 112.482 258.048 105C261.949 97.858 265.729 93.7 273.023 88.53C274.771 87.292 275.665 86.016 276.516 83.549L277.078 81.917L277.081 78.583C277.083 75.354 277.066 75.183 276.535 73.118C274.333 64.55 274.911 54.285 277.935 48.233C278.689 46.722 278.692 46.712 278.513 45.744C278.414 45.209 278.333 44.305 278.333 43.733C278.333 42.364 278.262 42.22 277.354 41.762C275.206 40.676 270.041 40.046 267.083 40.507ZM271.711 46.951C269.994 47.282 267.975 53.043 268.014 57.5L268.027 58.917L268.348 57.09C268.893 53.994 270.343 50.202 271.937 47.708C272.244 47.227 272.403 46.844 272.29 46.856C272.176 46.869 271.916 46.911 271.711 46.951ZM279.501 51.364C276.722 54.69 276.031 56.501 275.886 60.833C275.724 65.699 276.384 69.911 278.072 74.789C278.826 76.966 279.058 78.487 278.964 80.626C278.875 82.629 279.033 82.639 280.118 80.699C281.56 78.12 281.883 75.554 281.192 72.167C281.014 71.296 280.591 69.233 280.251 67.583C279.549 64.173 279.497 61.683 280.081 59.452C280.499 57.857 280.54 58.074 280.513 61.699C280.487 65.103 280.731 67.636 281.351 70.405C283.304 79.116 282.008 82.994 275.75 87.166C264.963 94.358 259.216 101.424 255.993 111.461C254.189 117.079 253.868 125.706 255.103 135.417C255.697 140.089 258.779 158.03 259.584 161.5C260.311 164.637 260.712 167.849 260.931 172.308L261.048 174.7L261.611 172.975C262.73 169.54 263.326 164.952 263.452 158.792C263.58 152.586 263.386 150.456 262.021 143.083C259.862 131.419 259.587 129.095 259.716 123.583C259.916 115.03 262.568 107.094 266.973 101.871C267.939 100.726 267.957 100.808 267.11 102.505C263.447 109.847 261.486 119.939 262.001 128.804C262.285 133.705 263.412 143.081 264.092 146.21C265.339 151.946 266.058 156.192 266.273 159.083C266.469 161.739 267 157.254 267 152.933C267 151.725 267.06 150.996 267.152 151.092C267.606 151.565 268.325 158.368 268.349 162.417C268.367 165.489 268.374 165.553 268.595 164.583C269.859 159.017 270.214 152.066 269.599 144.917C269.112 139.265 268.006 128.149 267.666 125.5C267.095 121.053 267 119.404 267.001 113.917C267.001 106.509 267.368 104.745 269.575 101.542C270.396 100.349 271.179 98.675 271.212 98.042C271.217 97.927 271.279 97.833 271.347 97.833C271.482 97.833 272.027 96.512 271.992 96.269C271.981 96.187 272.042 96.075 272.129 96.019C272.216 95.963 272.42 95.654 272.583 95.333C272.745 95.013 273.2 94.25 273.593 93.64C273.986 93.029 274.257 92.473 274.195 92.405C274.134 92.336 274.174 92.332 274.285 92.395C274.407 92.466 274.581 92.329 274.729 92.047C276.002 89.621 280.209 86.327 283.959 84.82L285.335 84.267L285.85 82.93C287.369 78.992 287.365 76.793 285.83 72.417C282.471 62.841 282.113 61.296 281.923 55.563C281.876 54.158 281.77 53.346 281.574 52.896C281.419 52.541 281.161 51.841 281.001 51.34C280.615 50.139 280.524 50.14 279.501 51.364ZM297.713 53.958C295.496 57.003 295.59 56.756 296.435 57.304C297.17 57.78 297.044 57.953 297.757 55.5C298.087 54.363 298.43 53.298 298.518 53.133C298.846 52.519 298.507 52.867 297.713 53.958ZM283.5 54.907C283.5 57.246 294.345 72 296.064 72C296.715 72 296.06 70.705 294.69 69.283C291.391 65.858 288.688 62.44 285.184 57.262C284.258 55.893 283.5 54.834 283.5 54.907ZM284.18 59.508C283.922 60.716 283.949 61.344 284.357 63.5C284.704 65.331 285 66.182 285 65.346C285 65.133 285.201 64.51 285.447 63.962C285.852 63.059 285.873 62.918 285.673 62.442C285.551 62.153 285.262 61.185 285.031 60.292C284.551 58.439 284.433 58.33 284.18 59.508ZM293.02 61.921L292.476 63.217L294.196 64.887L295.917 66.557L296.04 65.085L296.164 63.613L295.372 62.765C294.937 62.298 294.352 61.626 294.072 61.271L293.563 60.626L293.02 61.921ZM305.92 62.592C305.514 63.509 305.537 63.818 306.01 63.831C306.114 63.834 306.488 61.787 306.402 61.688C306.372 61.653 306.155 62.06 305.92 62.592ZM286.438 62.299C286.23 62.636 285.833 66.362 285.833 67.983C285.833 70.501 286.02 71.265 287.243 73.744C288.386 76.063 288.966 78.008 289.04 79.774C289.099 81.161 289.248 80.969 289.591 79.065C290.081 76.34 289.841 74.106 288.75 71.25C287.699 68.499 287.621 68.154 287.54 65.861C287.457 63.525 286.864 61.61 286.438 62.299ZM298.017 67.027C297.674 68.044 297.672 68.08 297.973 68.381C298.274 68.682 298.285 68.656 298.391 67.401C298.528 65.782 298.46 65.715 298.017 67.027ZM379.763 66.208C379.729 66.323 379.61 66.867 379.498 67.417C379.385 67.967 379.149 68.783 378.974 69.23C378.451 70.561 378.75 70.291 379.323 68.915C379.82 67.721 380.181 66 379.935 66C379.873 66 379.796 66.094 379.763 66.208ZM288.745 66.842C288.48 67.27 288.98 69.934 289.79 72.417C290.751 75.361 290.341 79.652 288.83 82.46L288.179 83.67L288.631 83.545C288.88 83.477 290.225 83.42 291.62 83.419L294.157 83.417L294.064 82.75C293.925 81.758 293.699 81.074 292.977 79.449C292.237 77.784 291.835 76.264 291.844 75.167L291.851 74.417L292.227 75.429C292.855 77.117 294.092 78.949 295.211 79.849L295.855 80.366L295.36 79.391C295.088 78.855 294.513 77.892 294.081 77.252C292.653 75.129 291.595 72.657 290.92 69.864C290.521 68.212 289.11 66.251 288.745 66.842ZM302.53 71.319C302.33 71.893 302.25 71.811 304.561 73.397C305.835 74.271 305.84 74.272 305.714 73.614C305.651 73.289 305.337 72.938 304.687 72.466C304.172 72.092 303.516 71.566 303.229 71.297L302.708 70.808L302.53 71.319ZM296.833 71.643C296.833 71.824 296.795 72.073 296.748 72.196C296.675 72.385 298.093 73.5 298.407 73.5C298.824 73.5 298.387 72.624 297.667 72.016C296.962 71.422 296.833 71.364 296.833 71.643ZM294.446 73.847C294.678 75.785 295.719 78.824 297.013 81.342C298.021 83.305 298.133 83.376 297.527 81.667C297.131 80.551 297.082 80.17 297.075 78.118L297.067 75.819L295.712 74.465L294.357 73.11L294.446 73.847ZM374.629 105.897L374.204 106.522L374.668 107.727C376.62 112.797 377.417 118.718 377.417 128.167C377.417 134.97 377.612 134.947 377.773 128.126C377.923 121.744 377.464 116.835 376.054 109.75C375.091 104.909 375.165 105.108 374.629 105.897ZM372.965 118.333C373.197 130.284 371.142 142.378 367.667 149.522C367.227 150.426 367.166 150.7 367.258 151.375C367.453 152.822 367.536 152.695 368.805 149C370.483 144.117 371.881 137.616 372.764 130.583C373.086 128.024 373.268 118.078 373.036 115.75C372.926 114.649 372.907 115.337 372.965 118.333ZM367.238 117C367.281 117.229 367.399 118.39 367.501 119.579C367.682 121.692 367.738 121.985 367.925 121.797C368.047 121.676 367.498 117.347 367.307 116.917C367.18 116.632 367.17 116.644 367.238 117ZM365.379 121.736C366.146 122.504 366.382 124.038 365.914 125.208C365.769 125.572 366.053 125.59 366.405 125.238C366.549 125.094 366.667 125.024 366.667 125.083C366.667 125.233 367.645 124.545 368.292 123.941C369.163 123.126 368.669 122.45 366.833 121.942C366.329 121.803 365.729 121.633 365.5 121.564C365.101 121.445 365.096 121.452 365.379 121.736ZM370.069 123.292C370.133 123.406 370.1 123.5 369.995 123.5C369.889 123.5 369.041 123.975 368.11 124.556C367.179 125.136 366.279 125.661 366.112 125.722C365.881 125.806 365.83 125.945 365.9 126.292C366.007 126.82 366.43 130.219 366.594 131.875C366.655 132.494 366.758 133 366.822 133C366.934 133 369.167 131.505 370.312 130.663L370.874 130.25L370.767 128.25C370.629 125.665 370.346 123.461 370.125 123.25C370.007 123.137 369.989 123.15 370.069 123.292ZM349 129.395V133.457L350 133.57C351.555 133.746 355.875 134.487 355.985 134.596C356.039 134.65 355.944 134.795 355.775 134.919C355.489 135.128 355.512 135.166 356.109 135.476C356.462 135.658 357.009 136.001 357.326 136.238L357.901 136.669L358.617 135.967L359.333 135.264V131.302C359.333 127.378 359.33 127.339 358.958 127.097C358.097 126.538 353.564 125.656 351.308 125.61C350.607 125.595 350.12 125.528 350.225 125.461C350.33 125.394 350.098 125.337 349.708 125.336L349 125.333V129.395ZM367.927 132.875C367.892 132.99 367.782 134.396 367.681 136C367.461 139.497 367.141 141.743 366.582 143.716C366.152 145.233 366.04 146.194 366.326 145.908C366.537 145.696 367.426 141.238 367.736 138.833C368.162 135.527 368.285 131.683 367.927 132.875ZM332.125 133.763C332.056 133.832 332 134.367 332 134.952C332 136.374 332.287 136.655 334.234 137.144C336.011 137.589 336.154 137.54 334.84 136.933C333.299 136.222 332.504 135.422 332.365 134.444C332.302 134.001 332.194 133.694 332.125 133.763ZM232.849 142.208C230.543 145.115 228.628 150.572 228.682 154.083L228.694 154.917L229.103 153.583C230.068 150.438 231.573 146.965 232.968 144.667C233.507 143.779 233.648 143.365 233.746 142.375C233.893 140.909 233.881 140.906 232.849 142.208Z" fill="black"/>
<path fill-rule="evenodd" clip-rule="evenodd" d="M365.425 67.792C366.044 69.21 365.864 70.716 365.03 71.083C364.747 71.208 364.676 71.344 364.746 71.625C364.872 72.131 364.681 72.833 364.416 72.833C363.937 72.833 363.832 71.448 364.292 71.18C364.452 71.087 364.505 71.008 364.408 71.005C363.888 70.99 363.645 72.003 364.006 72.678C364.211 73.061 364.638 73.101 364.773 72.75C364.826 72.612 365.074 72.5 365.327 72.5C367.129 72.5 367.625 69.897 366.159 68.125C365.619 67.471 365.203 67.282 365.425 67.792ZM333.738 74.375C334.392 76.591 333.221 79.002 332.142 77.662C331.849 77.297 331.832 77.292 331.992 77.619C332.241 78.13 332.254 79.647 332.011 79.886C331.483 80.407 331.025 78.079 331.542 77.5C331.717 77.303 331.707 77.299 331.479 77.47C331.161 77.709 330.252 76.813 330.068 76.08C329.932 75.541 329.787 75.559 329.265 76.179C328.619 76.947 328.709 77.269 329.875 78.372C330.448 78.913 331.107 79.539 331.34 79.762C331.848 80.249 332.11 80.274 332.244 79.851C332.308 79.652 332.567 79.493 332.944 79.423C335.371 78.967 336.32 77.387 335.437 75.273C335.016 74.266 333.464 73.446 333.738 74.375Z" fill="black"/>
</g>
<defs>
<clipPath id="clip0_0_1">
<rect width="400" height="225.84" fill="white"/>
</clipPath>
</defs>
</svg>
