<svg id="svg" version="1.1" xmlns="http://www.w3.org/2000/svg" xmlns:xlink="http://www.w3.org/1999/xlink" width="400" height="225" viewBox="0, 0, 400,225"><g id="svgg"><path id="path0" d="M107.814 27.909 C 107.579 29.298,108.203 30.843,111.561 37.188 C 116.830 47.142,116.792 45.750,111.855 48.024 C 104.088 51.601,98.050 55.212,98.384 56.081 C 98.676 56.842,103.925 60.076,108.480 62.301 C 113.578 64.791,116.455 65.828,123.764 67.810 C 126.465 68.542,128.927 69.256,129.235 69.397 C 130.275 69.870,136.915 81.488,136.426 81.977 C 136.364 82.039,134.677 82.318,132.678 82.597 C 120.131 84.347,104.238 90.370,98.695 95.476 L 98.066 96.056 98.551 96.572 C 99.975 98.088,107.477 102.296,112.396 104.337 C 123.273 108.852,133.819 110.609,146.411 110.003 C 150.985 109.784,151.738 109.791,152.140 110.056 C 153.008 110.629,159.167 121.440,159.167 122.391 C 159.167 122.824,158.800 122.800,154.888 122.101 C 136.317 118.786,115.572 123.124,99.934 133.591 C 97.646 135.123,97.562 134.998,103.102 138.314 C 122.371 149.847,143.473 151.931,166.979 144.621 C 168.469 144.158,169.967 143.749,170.309 143.712 C 171.016 143.637,170.447 142.702,180.470 160.417 C 183.226 165.286,186.064 170.302,186.778 171.563 C 187.492 172.823,189.576 176.526,191.410 179.792 C 198.440 192.310,200.095 195.176,201.584 197.405 C 204.884 202.345,205.286 202.401,207.498 198.229 C 209.688 194.101,219.605 176.189,227.397 162.292 C 228.970 159.484,230.718 156.362,231.281 155.354 C 235.900 147.069,238.009 143.413,238.302 143.180 C 238.804 142.783,239.709 142.970,244.113 144.383 C 260.655 149.688,275.138 150.101,290.208 145.698 C 299.916 142.862,313.481 135.817,312.134 134.311 C 307.938 129.620,290.956 123.059,278.229 121.210 C 272.946 120.442,260.173 120.949,253.392 122.195 C 250.584 122.711,250.000 122.701,250.000 122.136 C 250.000 121.662,256.404 109.581,256.963 109.000 C 257.174 108.780,258.093 108.770,261.789 108.946 C 280.508 109.839,293.024 107.153,306.667 99.316 C 311.984 96.261,312.821 95.502,311.795 94.659 C 304.770 88.886,291.164 83.773,277.538 81.784 C 273.574 81.205,273.542 81.196,273.542 80.609 C 273.542 79.986,277.370 72.564,279.097 69.838 C 279.930 68.524,279.715 68.615,285.628 67.077 C 293.603 65.004,296.322 64.015,302.522 60.937 C 307.078 58.675,310.386 56.777,311.631 55.712 L 312.523 54.948 312.043 54.434 C 310.863 53.172,302.329 48.383,298.229 46.682 C 294.805 45.261,293.712 44.616,293.863 44.106 C 294.029 43.545,296.843 38.088,298.696 34.735 C 300.636 31.222,301.031 30.169,301.037 28.490 L 301.042 27.083 204.497 27.083 L 107.953 27.083 107.814 27.909 M201.945 68.889 C 202.211 142.653,202.070 188.849,201.580 188.687 C 201.243 188.576,199.191 185.088,193.345 174.688 C 190.447 169.531,187.675 164.609,187.185 163.750 C 183.347 157.018,176.615 144.892,175.656 142.984 L 175.009 141.696 175.625 141.178 C 175.963 140.893,177.753 139.738,179.602 138.611 C 181.450 137.484,183.351 136.211,183.825 135.781 L 184.688 135.000 183.807 134.195 C 182.157 132.686,175.769 129.136,170.833 126.985 C 166.139 124.939,166.169 124.958,165.169 123.407 C 161.977 118.458,156.838 109.149,157.115 108.816 C 157.234 108.672,158.143 108.314,159.135 108.021 C 170.031 104.794,177.005 101.693,182.656 97.560 C 184.745 96.032,184.739 96.015,181.146 93.700 C 170.867 87.080,160.802 83.769,146.771 82.393 C 141.418 81.868,142.074 82.256,139.642 78.177 C 137.131 73.964,135.208 70.530,135.208 70.259 C 135.208 70.140,137.498 70.010,140.885 69.936 C 154.104 69.648,163.458 67.446,174.688 61.979 C 181.085 58.864,184.579 56.428,183.835 55.601 C 182.659 54.293,177.651 51.174,174.210 49.606 C 157.440 41.969,143.307 40.322,124.937 43.868 C 122.898 44.261,121.150 44.583,121.054 44.583 C 120.424 44.583,113.125 31.939,113.125 30.848 C 113.125 30.502,114.165 30.493,158.455 30.454 L 201.806 30.417 201.945 68.889 M294.670 30.596 L 295.903 30.729 293.721 35.000 C 292.521 37.349,291.033 40.138,290.414 41.198 C 289.072 43.496,289.503 43.402,284.456 42.487 C 264.525 38.872,243.885 42.677,228.836 52.740 C 225.956 54.666,225.929 54.729,227.506 55.942 C 228.655 56.826,233.223 59.792,233.436 59.792 C 233.486 59.792,234.465 60.253,235.612 60.817 C 246.065 65.957,255.601 68.267,268.750 68.845 C 272.775 69.022,274.375 69.181,274.375 69.404 C 274.375 69.759,268.257 81.084,268.033 81.144 C 267.912 81.177,265.889 81.403,263.539 81.648 C 248.747 83.188,236.699 87.415,227.135 94.420 C 225.758 95.429,225.753 95.397,227.514 96.557 C 233.306 100.373,240.050 103.585,247.258 105.960 C 250.137 106.909,252.168 107.687,252.237 107.866 C 252.371 108.216,250.157 112.705,247.023 118.438 C 243.430 125.012,243.436 125.003,241.875 125.767 C 241.130 126.131,238.786 127.274,236.667 128.307 C 232.765 130.208,227.645 133.137,226.743 133.985 C 225.816 134.855,226.029 135.079,230.467 137.901 C 232.101 138.940,233.670 139.971,233.955 140.193 L 234.472 140.596 233.988 141.600 C 233.043 143.560,229.439 150.083,219.277 168.229 C 217.994 170.521,215.553 174.880,213.854 177.917 C 207.585 189.116,206.695 190.508,206.054 190.112 C 205.815 189.964,205.723 31.364,205.961 30.742 C 206.091 30.404,291.599 30.263,294.670 30.596 M271.723 46.150 C 277.747 47.898,280.663 54.472,277.785 59.817 C 274.214 66.449,265.073 66.732,261.069 60.335 C 256.571 53.151,263.600 43.793,271.723 46.150 M282.254 45.931 C 290.213 47.331,304.792 53.125,304.792 54.887 C 304.792 56.792,285.835 63.954,280.781 63.958 C 280.247 63.958,280.314 63.671,281.406 61.253 L 282.396 59.063 282.396 55.521 C 282.395 51.516,282.270 51.046,280.289 47.628 C 279.038 45.470,279.139 45.382,282.254 45.931 M258.762 46.510 C 255.626 51.277,255.063 57.989,257.417 62.540 C 257.990 63.648,257.324 63.783,254.077 63.215 C 246.977 61.973,232.562 56.000,233.399 54.646 C 234.839 52.316,252.738 45.942,258.093 45.852 L 259.208 45.833 258.762 46.510 M131.250 46.900 C 131.250 47.028,130.919 47.678,130.514 48.345 C 127.483 53.335,127.134 58.279,129.478 63.050 C 130.486 65.103,130.463 65.292,129.219 65.115 C 123.349 64.280,108.289 58.724,105.903 56.512 L 105.334 55.985 105.948 55.477 C 106.810 54.764,113.171 51.663,116.042 50.555 C 122.211 48.176,131.250 46.003,131.250 46.900 M145.087 47.783 C 151.501 50.954,152.877 57.907,148.101 63.013 C 142.837 68.641,133.634 66.099,131.892 58.536 C 130.170 51.063,138.306 44.432,145.087 47.783 M155.550 47.297 C 162.643 48.754,171.415 52.064,176.615 55.245 C 177.817 55.981,177.501 56.284,173.438 58.300 C 167.292 61.347,161.181 63.514,155.729 64.579 C 154.469 64.825,153.273 65.074,153.072 65.132 C 152.459 65.308,152.411 64.632,152.976 63.796 C 155.644 59.852,154.994 51.996,151.648 47.742 C 151.429 47.463,151.250 47.154,151.250 47.055 C 151.250 46.739,153.429 46.861,155.550 47.297 M259.068 86.259 C 259.142 86.379,258.836 87.106,258.387 87.874 C 255.469 92.871,255.125 97.507,257.320 102.268 C 257.763 103.230,258.125 104.063,258.125 104.121 C 258.125 104.307,255.186 103.961,253.152 103.536 C 248.032 102.467,236.213 97.766,234.063 95.944 L 233.438 95.414 234.167 94.783 C 236.405 92.844,245.761 88.988,252.104 87.391 C 256.660 86.243,258.840 85.889,259.068 86.259 M283.578 86.689 C 292.758 88.765,304.792 93.662,304.792 95.322 C 304.792 97.157,288.199 103.632,281.747 104.315 C 280.290 104.469,280.244 104.268,281.242 102.100 C 283.342 97.541,283.077 92.923,280.453 88.377 C 278.893 85.674,278.950 85.643,283.578 86.689 M272.711 86.951 C 279.126 89.570,280.929 97.775,276.142 102.563 C 271.020 107.684,262.565 105.615,260.103 98.636 C 257.537 91.363,265.481 83.999,272.711 86.951 M130.969 87.194 C 131.038 87.375,130.780 87.984,130.371 88.601 C 127.552 92.855,127.199 98.805,129.494 103.362 C 130.569 105.497,130.487 105.541,126.927 104.770 C 117.594 102.748,105.155 97.490,105.994 95.922 C 107.248 93.579,123.042 87.788,130.579 86.906 C 130.726 86.889,130.902 87.019,130.969 87.194 M143.035 87.311 C 149.100 88.430,152.576 95.156,149.948 100.689 C 147.173 106.533,139.397 108.073,134.818 103.686 C 128.533 97.664,132.505 87.609,141.368 87.108 C 141.605 87.094,142.355 87.186,143.035 87.311 M156.771 87.812 C 164.216 89.362,176.667 94.646,176.667 96.256 C 176.667 97.541,165.625 102.274,158.171 104.184 C 152.708 105.584,152.451 105.417,154.003 101.467 C 155.510 97.631,155.010 93.573,152.469 89.027 C 151.971 88.135,151.526 87.318,151.482 87.212 C 151.363 86.925,153.887 87.212,156.771 87.812 M258.750 125.623 C 259.025 125.799,259.021 125.892,258.710 126.401 C 256.342 130.291,255.951 131.512,255.955 135.000 C 255.958 137.692,256.471 140.051,257.496 142.083 C 258.347 143.772,258.326 143.831,256.951 143.683 C 250.973 143.041,234.388 136.755,233.659 134.855 C 233.451 134.314,237.209 132.155,241.695 130.239 C 247.068 127.943,257.826 125.032,258.750 125.623 M283.387 126.044 C 290.308 127.506,301.375 131.723,304.545 134.106 C 305.490 134.816,305.278 135.013,301.492 136.944 C 295.063 140.224,287.454 142.841,281.816 143.711 C 280.244 143.954,280.223 143.879,281.224 141.596 C 283.316 136.827,283.143 132.583,280.671 128.015 C 279.007 124.938,278.814 125.078,283.387 126.044 M131.667 125.725 C 131.667 125.780,131.351 126.319,130.966 126.923 C 127.919 131.697,127.423 137.614,129.693 142.095 C 130.891 144.458,130.776 144.484,125.173 143.107 C 116.945 141.086,104.924 135.811,106.042 134.713 C 108.238 132.554,120.977 127.535,127.500 126.258 C 130.398 125.691,131.667 125.529,131.667 125.725 M271.812 126.141 C 276.830 127.735,279.836 132.583,278.644 137.160 C 276.224 146.450,264.674 147.503,260.495 138.815 C 257.134 131.827,264.333 123.766,271.812 126.141 M144.479 126.471 C 154.494 130.179,152.836 143.787,142.209 145.110 C 137.957 145.640,133.433 142.145,132.189 137.369 C 130.446 130.676,137.925 124.045,144.479 126.471 M155.342 126.252 C 163.019 127.819,175.072 132.476,177.021 134.629 C 178.175 135.905,166.641 140.970,157.407 143.243 C 152.500 144.451,152.486 144.443,153.822 141.249 C 155.653 136.875,155.291 132.163,152.799 127.898 C 151.427 125.551,151.541 125.477,155.342 126.252 M265.729 161.451 C 257.978 161.727,252.982 162.594,245.831 164.906 C 239.223 167.042,226.042 173.855,226.042 175.135 C 226.042 176.490,238.374 182.971,245.252 185.231 C 267.139 192.421,292.143 189.277,310.104 177.075 C 312.918 175.163,312.910 175.209,310.756 173.673 C 298.954 165.253,282.725 160.848,265.729 161.451 M259.167 166.129 C 259.167 166.176,258.763 166.903,258.269 167.743 C 255.408 172.614,255.132 177.258,257.399 182.383 C 258.075 183.912,258.063 184.167,257.314 184.167 C 253.066 184.167,235.907 177.896,233.812 175.578 C 232.466 174.089,245.685 168.484,255.104 166.550 C 257.204 166.119,259.167 165.915,259.167 166.129 M272.411 166.808 C 279.383 169.742,281.095 177.279,275.955 182.411 C 270.220 188.138,260.563 184.660,259.717 176.563 C 259.016 169.861,266.322 164.247,272.411 166.808 M285.315 166.959 C 292.887 168.824,305.000 173.839,305.000 175.108 C 305.000 176.869,287.991 183.448,281.801 184.082 C 280.153 184.251,280.156 184.258,281.149 182.286 C 283.334 177.947,283.093 172.661,280.503 168.152 C 279.883 167.072,279.375 166.141,279.375 166.084 C 279.375 165.822,282.672 166.308,285.315 166.959 " stroke="none" fill="#e3e3e3" fill-rule="evenodd"></path></g></svg>