<svg id="svg" version="1.1" xmlns="http://www.w3.org/2000/svg" xmlns:xlink="http://www.w3.org/1999/xlink" width="400" height="58.835978835978835" viewBox="0, 0, 400,58.835978835978835"><g id="svgg"><path id="path0" d="M22.693 0.888 C 19.676 2.063,5.363 10.578,3.696 12.189 C 0.467 15.312,0.382 15.752,0.382 29.418 C 0.382 45.732,0.092 45.185,12.617 52.468 C 27.160 60.924,27.104 60.923,41.079 52.910 C 52.059 46.615,54.585 44.021,49.735 44.021 L 46.984 44.021 46.984 38.095 L 46.984 32.169 42.116 32.169 L 37.249 32.169 37.249 38.095 L 37.249 44.021 33.651 44.021 L 30.053 44.021 30.053 29.630 L 30.053 15.238 33.651 15.238 L 37.249 15.238 37.249 20.952 L 37.249 26.667 42.116 26.667 L 46.984 26.667 46.984 20.952 L 46.984 15.238 49.947 15.238 C 51.577 15.238,52.910 15.065,52.910 14.854 C 52.910 13.262,42.506 6.299,32.657 1.298 C 30.291 0.097,25.255 -0.110,22.693 0.888 M383.048 14.968 C 376.731 16.672,374.603 20.363,374.603 29.620 C 374.603 40.613,378.184 44.707,387.725 44.625 C 396.120 44.552,399.759 40.889,399.675 32.593 L 399.626 27.725 393.146 27.725 L 386.667 27.725 386.539 30.438 C 386.389 33.626,386.595 33.847,389.735 33.856 C 391.909 33.862,391.958 33.890,391.958 35.102 C 391.958 38.106,386.750 39.302,384.306 36.858 L 383.069 35.621 383.069 29.853 C 383.069 23.037,383.453 21.887,385.980 21.130 C 388.588 20.348,390.564 21.201,391.606 23.556 L 392.435 25.429 396.112 25.307 L 399.788 25.185 399.772 23.263 C 399.719 17.170,390.971 12.831,383.048 14.968 M56.720 15.321 C 56.720 15.599,58.767 19.647,61.270 24.315 L 65.820 32.804 66.032 38.519 L 66.243 44.233 70.265 44.233 L 74.286 44.233 74.497 38.519 L 74.709 32.804 79.471 24.077 C 82.090 19.277,84.233 15.230,84.233 15.083 C 84.233 14.935,82.270 14.815,79.872 14.815 L 75.510 14.815 72.889 20.170 L 70.268 25.525 67.706 20.170 L 65.144 14.815 60.932 14.815 C 57.947 14.815,56.720 14.962,56.720 15.321 M88.042 29.630 L 88.042 44.444 92.063 44.444 L 96.085 44.444 96.085 39.213 L 96.085 33.982 100.745 33.761 C 108.769 33.381,112.626 30.601,112.944 24.968 C 113.385 17.163,109.520 14.821,96.190 14.817 L 88.042 14.815 88.042 29.630 M117.249 29.630 L 117.249 44.458 128.995 44.345 L 140.741 44.233 140.741 41.270 L 140.741 38.307 133.016 38.192 L 125.291 38.076 125.291 35.334 L 125.291 32.593 130.370 32.593 L 135.450 32.593 135.450 29.418 L 135.450 26.243 130.370 26.243 L 125.291 26.243 125.291 23.713 L 125.291 21.183 133.016 21.068 L 140.741 20.952 140.741 17.989 L 140.741 15.026 128.995 14.914 L 117.249 14.801 117.249 29.630 M145.389 15.317 C 145.271 15.626,145.224 22.259,145.285 30.056 L 145.397 44.233 149.418 44.233 L 153.439 44.233 153.557 38.624 L 153.675 33.016 155.147 33.016 C 156.613 33.016,156.628 33.036,159.466 38.730 L 162.314 44.444 166.448 44.444 C 171.419 44.444,171.334 44.934,167.580 37.964 C 164.873 32.936,164.650 32.347,165.317 31.962 C 172.043 28.074,171.916 19.464,165.079 15.817 C 163.146 14.785,145.763 14.344,145.389 15.317 M175.019 15.316 C 174.900 15.626,174.853 22.259,174.915 30.056 L 175.026 44.233 179.048 44.233 L 183.069 44.233 183.187 39.108 L 183.306 33.983 187.632 33.734 C 192.946 33.429,194.673 32.892,197.040 30.809 C 201.625 26.772,200.507 18.981,194.930 16.108 C 192.412 14.811,175.472 14.137,175.019 15.316 M204.021 29.630 L 204.021 44.444 215.873 44.444 L 227.725 44.444 227.725 41.270 L 227.725 38.095 219.894 38.095 L 212.063 38.095 212.063 26.455 L 212.063 14.815 208.042 14.815 L 204.021 14.815 204.021 29.630 M241.049 15.344 C 239.175 20.455,231.111 43.756,231.111 44.058 C 231.111 44.311,232.803 44.427,235.430 44.353 L 239.748 44.233 240.372 42.222 L 240.995 40.212 246.318 40.214 L 251.640 40.216 252.275 42.224 L 252.910 44.233 257.249 44.353 C 259.635 44.420,261.587 44.316,261.587 44.122 C 261.587 43.929,259.302 37.312,256.508 29.418 C 253.714 21.524,251.429 15.009,251.429 14.940 C 251.429 14.486,241.218 14.883,241.049 15.344 M265.820 29.614 L 265.820 44.444 269.832 44.444 L 273.844 44.444 273.959 36.548 L 274.074 28.652 279.332 36.563 L 284.590 44.474 288.433 44.354 L 292.275 44.233 292.275 29.630 L 292.275 15.026 288.254 15.026 L 284.233 15.026 284.117 22.752 L 284.002 30.477 278.826 22.752 L 273.651 15.026 269.735 14.905 L 265.820 14.783 265.820 29.614 M297.566 29.645 L 297.566 44.475 301.693 44.354 L 305.820 44.233 305.683 36.190 L 305.545 28.148 310.974 36.297 L 316.402 44.446 320.212 44.339 L 324.021 44.233 324.132 29.508 L 324.244 14.784 320.111 14.905 L 315.979 15.026 316.119 23.069 L 316.260 31.111 310.828 22.973 L 305.397 14.836 301.481 14.825 L 297.566 14.815 297.566 29.645 M329.735 29.630 L 329.735 44.444 333.757 44.444 L 337.778 44.444 337.778 29.630 L 337.778 14.815 333.757 14.815 L 329.735 14.815 329.735 29.630 M343.280 29.630 L 343.280 44.444 347.302 44.444 L 351.323 44.444 351.323 36.392 L 351.323 28.340 356.720 36.388 L 362.116 44.436 365.926 44.335 L 369.735 44.233 369.735 29.630 L 369.735 15.026 365.714 15.026 L 361.693 15.026 361.481 22.607 L 361.270 30.187 356.190 22.511 L 351.111 14.834 347.196 14.824 L 343.280 14.815 343.280 29.630 M102.803 21.632 C 107.525 23.278,105.084 27.513,99.414 27.513 L 96.085 27.513 96.085 24.339 L 96.085 21.164 98.773 21.164 C 100.251 21.164,102.065 21.375,102.803 21.632 M161.227 22.183 C 163.815 24.526,161.485 27.090,156.768 27.090 L 153.651 27.090 153.651 24.082 L 153.651 21.074 156.994 21.226 C 159.536 21.342,160.550 21.571,161.227 22.183 M190.023 21.783 C 194.018 23.849,191.758 27.513,186.487 27.513 L 183.069 27.513 183.069 24.339 L 183.069 21.164 185.947 21.164 C 187.645 21.164,189.316 21.418,190.023 21.783 M248.021 29.355 L 249.678 34.286 246.285 34.286 C 243.751 34.286,242.941 34.152,243.084 33.757 C 243.190 33.466,243.920 31.199,244.707 28.719 C 245.494 26.240,246.189 24.259,246.251 24.318 C 246.314 24.377,247.110 26.644,248.021 29.355 " stroke="none" fill="#000000" fill-rule="evenodd"></path></g></svg>