<svg id="svg" xmlns="http://www.w3.org/2000/svg" xmlns:xlink="http://www.w3.org/1999/xlink" width="400" height="225" viewBox="0, 0, 400,225"><g id="svgg"><path id="path0" d="M0.000 112.500 L 0.000 225.000 200.000 225.000 L 400.000 225.000 400.000 112.500 L 400.000 0.000 200.000 0.000 L 0.000 0.000 0.000 112.500 M301.042 28.411 C 301.042 30.195,300.799 30.803,298.045 35.914 C 295.448 40.734,294.091 43.396,293.870 44.106 C 293.716 44.603,294.785 45.252,297.917 46.559 C 302.068 48.292,310.029 52.684,311.708 54.167 L 312.534 54.896 311.944 55.453 C 310.895 56.445,307.706 58.312,303.125 60.615 C 296.339 64.027,293.768 64.966,284.926 67.258 C 281.842 68.058,280.027 68.630,279.776 68.882 C 278.751 69.908,273.477 79.960,273.581 80.689 C 273.653 81.197,273.772 81.226,279.271 82.074 C 291.570 83.972,302.731 88.201,310.990 94.092 C 312.814 95.393,312.771 95.499,309.583 97.558 C 295.575 106.603,281.980 109.772,260.928 108.898 L 256.960 108.733 256.613 109.419 C 256.422 109.796,255.699 111.135,255.008 112.396 C 252.424 117.105,250.000 121.834,250.000 122.168 C 250.000 122.752,250.486 122.758,253.471 122.211 C 273.225 118.593,292.868 122.051,308.820 131.957 C 313.000 134.552,313.013 134.589,310.426 136.398 C 304.613 140.461,295.471 144.423,287.226 146.452 C 272.710 150.024,259.822 149.404,244.109 144.379 C 239.694 142.967,238.803 142.784,238.300 143.182 C 238.110 143.332,236.433 146.170,234.574 149.488 C 229.931 157.772,226.733 163.468,224.578 167.292 C 222.173 171.561,215.217 184.113,211.359 191.146 C 206.303 200.365,206.038 200.821,205.595 201.058 C 204.051 201.884,202.805 200.038,192.298 181.354 C 184.674 167.797,184.615 167.692,178.648 157.188 C 171.420 144.462,171.014 143.757,170.845 143.653 C 170.647 143.531,168.875 143.997,165.104 145.164 C 145.259 151.307,125.892 149.895,108.037 141.006 C 105.325 139.655,99.773 136.354,98.800 135.513 L 98.044 134.859 99.616 133.798 C 115.664 122.969,136.894 118.643,156.064 122.296 C 158.733 122.805,159.167 122.814,159.167 122.362 C 159.167 121.547,153.603 111.614,152.449 110.367 L 151.877 109.750 148.074 109.927 C 134.074 110.579,124.783 109.188,113.438 104.740 C 108.491 102.801,101.253 98.874,98.916 96.861 L 98.034 96.102 98.694 95.499 C 104.362 90.322,119.811 84.463,132.694 82.602 C 134.691 82.314,136.373 82.030,136.431 81.971 C 136.910 81.493,130.279 69.872,129.264 69.410 C 128.955 69.269,126.487 68.551,123.778 67.813 C 116.133 65.731,113.350 64.715,108.059 62.073 C 103.323 59.709,98.670 56.827,98.384 56.081 C 98.045 55.199,104.943 51.157,113.282 47.352 C 116.552 45.859,116.742 46.937,111.450 36.979 C 108.269 30.994,107.655 29.447,107.857 27.938 L 107.972 27.083 204.507 27.083 L 301.042 27.083 301.042 28.411 M114.010 30.569 C 112.902 30.669,112.894 30.588,114.292 33.376 C 116.922 38.620,120.555 44.586,121.117 44.582 C 121.247 44.581,122.995 44.260,125.000 43.870 C 135.588 41.809,141.714 41.601,152.687 42.929 C 162.564 44.125,177.672 50.184,183.438 55.262 L 184.271 55.996 183.485 56.738 C 180.914 59.167,171.049 64.057,164.375 66.212 C 156.568 68.733,150.415 69.711,140.990 69.929 C 137.234 70.016,135.208 70.139,135.208 70.279 C 135.208 70.554,136.986 73.720,139.643 78.177 C 142.074 82.256,141.418 81.868,146.771 82.393 C 160.153 83.705,169.529 86.662,179.551 92.731 C 184.606 95.792,184.766 96.018,182.880 97.406 C 177.182 101.601,170.192 104.722,159.141 108.005 C 158.153 108.299,157.243 108.662,157.118 108.812 C 156.831 109.159,161.663 117.937,165.137 123.378 C 166.141 124.952,166.003 124.864,170.938 127.053 C 176.626 129.575,183.068 133.209,184.271 134.573 L 184.688 135.046 183.825 135.804 C 183.351 136.221,181.450 137.484,179.602 138.611 C 177.753 139.738,175.964 140.893,175.625 141.178 L 175.009 141.696 175.751 143.169 C 176.495 144.646,181.621 153.932,184.065 158.229 C 185.582 160.898,191.327 171.115,194.021 175.938 C 198.635 184.196,201.343 188.750,201.639 188.750 C 202.069 188.750,202.220 126.517,201.945 62.639 L 201.806 30.417 158.351 30.453 C 134.451 30.473,114.497 30.525,114.010 30.569 M205.972 30.556 C 205.754 30.773,205.805 189.958,206.023 190.093 C 206.666 190.490,207.627 189.056,212.229 180.833 C 213.030 179.401,215.914 174.245,218.636 169.375 C 221.359 164.505,224.222 159.396,224.999 158.021 C 229.589 149.899,234.375 141.050,234.375 140.685 C 234.375 140.545,233.465 139.841,232.353 139.121 C 225.815 134.888,225.798 134.873,226.807 133.964 C 228.279 132.637,236.461 128.157,240.521 126.454 C 241.667 125.974,242.779 125.427,242.992 125.238 C 244.154 124.212,252.486 108.516,252.228 107.842 C 252.160 107.666,250.431 106.996,248.087 106.237 C 240.451 103.763,233.457 100.475,227.552 96.583 C 225.764 95.404,225.766 95.412,227.030 94.495 C 236.834 87.380,248.749 83.187,263.539 81.648 C 265.889 81.403,267.909 81.178,268.027 81.146 C 268.224 81.095,269.148 79.449,272.239 73.646 C 274.074 70.200,274.462 69.392,274.338 69.269 C 274.273 69.204,271.794 69.015,268.829 68.849 C 256.036 68.135,251.001 67.109,241.060 63.195 C 234.217 60.501,226.328 55.907,226.500 54.716 C 226.644 53.716,234.184 49.440,240.521 46.763 C 254.028 41.058,268.550 39.647,284.479 42.492 C 289.526 43.394,289.075 43.492,290.414 41.198 C 291.033 40.138,292.521 37.349,293.721 35.000 L 295.902 30.729 294.774 30.594 C 293.279 30.414,206.151 30.376,205.972 30.556 M267.988 45.834 C 260.071 47.471,257.008 56.087,262.264 61.936 C 269.599 70.099,282.988 60.617,277.754 50.967 C 275.877 47.508,271.365 45.136,267.988 45.834 M279.497 45.804 C 279.422 45.926,279.783 46.756,280.301 47.648 C 283.025 52.349,283.336 57.068,281.224 61.644 C 280.289 63.669,280.246 63.958,280.885 63.958 C 285.831 63.958,304.792 56.777,304.792 54.904 C 304.792 52.679,280.622 43.984,279.497 45.804 M255.322 46.170 C 248.127 47.469,233.686 53.147,233.385 54.795 C 233.108 56.314,247.137 61.992,254.267 63.247 C 257.500 63.816,257.995 63.652,257.322 62.234 C 255.073 57.494,255.645 51.248,258.762 46.510 L 259.208 45.833 258.093 45.852 C 257.481 45.862,256.233 46.005,255.322 46.170 M127.292 47.199 C 119.928 48.753,108.000 53.418,105.752 55.621 C 104.393 56.954,118.611 62.965,127.471 64.804 C 130.516 65.436,130.709 65.323,129.694 63.508 C 127.129 58.918,127.426 53.429,130.514 48.345 C 131.694 46.403,131.459 46.319,127.292 47.199 M139.328 47.088 C 128.860 49.718,129.375 64.115,140.007 66.092 C 145.191 67.056,150.938 61.991,150.938 56.458 C 150.938 50.671,144.796 45.714,139.328 47.088 M151.250 47.010 C 151.250 47.084,151.593 47.661,152.013 48.293 C 155.106 52.953,155.525 60.385,152.896 63.942 C 152.389 64.627,152.489 65.300,153.072 65.132 C 153.273 65.074,154.469 64.825,155.729 64.579 C 162.802 63.197,177.292 57.399,177.292 55.950 C 177.292 55.208,169.375 51.380,164.271 49.654 C 158.680 47.764,151.250 46.255,151.250 47.010 M256.102 86.461 C 246.443 88.395,232.471 94.188,233.749 95.729 C 235.691 98.068,252.796 104.167,257.417 104.167 C 258.276 104.167,258.285 104.367,257.325 102.269 C 255.217 97.665,255.433 93.531,258.039 88.578 C 259.525 85.753,259.543 85.772,256.102 86.461 M279.375 86.275 C 279.375 86.404,279.838 87.318,280.404 88.306 C 283.128 93.066,283.385 97.405,281.222 102.133 C 280.036 104.724,280.157 104.780,284.654 103.742 C 293.219 101.765,304.792 96.926,304.792 95.321 C 304.792 94.728,301.702 92.910,297.708 91.153 C 291.763 88.538,279.375 85.242,279.375 86.275 M267.500 86.402 C 263.088 87.211,259.356 91.871,259.635 96.223 C 260.169 104.571,270.330 108.465,276.162 102.557 C 282.615 96.020,276.567 84.740,267.500 86.402 M129.167 87.113 C 120.849 88.490,105.833 94.288,105.833 96.123 C 105.833 98.041,124.547 105.208,129.556 105.208 C 130.373 105.208,130.369 105.101,129.494 103.362 C 127.216 98.839,127.565 92.848,130.352 88.649 C 130.731 88.077,131.042 87.444,131.042 87.242 C 131.042 86.837,130.896 86.827,129.167 87.113 M139.792 87.309 C 132.854 88.528,129.544 96.272,133.459 102.121 C 138.253 109.284,149.724 106.490,150.804 97.896 C 151.592 91.633,145.965 86.225,139.792 87.309 M151.458 87.162 C 151.458 87.205,151.886 88.014,152.408 88.958 C 154.977 93.603,155.511 97.549,154.073 101.250 C 153.649 102.339,153.286 103.604,153.266 104.063 L 153.229 104.896 154.479 104.872 C 159.131 104.785,176.667 97.967,176.667 96.246 C 176.667 94.988,166.143 90.152,159.904 88.544 C 156.095 87.562,151.458 86.803,151.458 87.162 M255.689 125.937 C 247.573 127.816,242.402 129.619,237.083 132.425 C 234.526 133.774,233.519 134.489,233.659 134.855 C 234.414 136.822,252.936 143.750,257.438 143.750 C 258.269 143.750,258.265 143.847,257.508 142.068 C 255.128 136.477,255.374 131.503,258.244 127.180 C 259.525 125.249,259.247 125.114,255.689 125.937 M279.635 125.997 C 279.778 126.315,280.392 127.558,280.997 128.757 C 283.261 133.237,283.240 137.206,280.929 142.240 C 280.210 143.806,280.215 143.824,281.354 143.758 C 285.301 143.530,294.749 140.355,301.264 137.066 C 305.265 135.047,305.504 134.830,304.532 134.089 C 301.687 131.918,290.654 127.655,284.042 126.170 C 279.794 125.216,279.274 125.196,279.635 125.997 M130.208 125.764 C 122.881 126.924,112.123 130.763,106.981 134.053 C 105.330 135.109,105.375 135.166,109.483 137.248 C 116.002 140.552,126.735 144.167,130.023 144.167 C 130.383 144.167,130.201 143.167,129.599 141.840 C 127.471 137.146,127.961 131.618,130.914 127.002 C 131.885 125.483,131.893 125.497,130.208 125.764 M266.563 126.130 C 259.498 128.485,257.427 136.129,262.374 141.590 C 269.896 149.891,282.871 140.660,277.640 130.729 C 275.565 126.791,270.672 124.760,266.563 126.130 M139.397 126.150 C 131.975 128.233,129.587 136.833,134.929 142.243 C 143.364 150.785,156.431 138.810,148.963 129.381 C 147.009 126.914,142.319 125.330,139.397 126.150 M151.875 126.073 C 151.875 126.205,152.295 127.041,152.808 127.931 C 155.304 132.257,155.654 136.889,153.817 141.249 C 152.460 144.472,152.448 144.466,157.941 143.113 C 164.768 141.430,171.172 138.887,176.094 135.904 C 177.776 134.885,177.654 134.703,173.958 132.739 C 167.338 129.221,151.875 124.554,151.875 126.073 M275.133 161.457 C 286.337 162.223,298.786 166.245,308.628 172.279 C 310.233 173.263,312.195 174.675,312.385 174.983 C 312.831 175.704,305.997 179.880,299.976 182.566 C 297.413 183.709,296.092 184.228,292.708 185.422 C 277.153 190.906,255.797 190.085,240.448 183.412 C 235.215 181.137,228.506 177.491,226.771 175.980 L 225.938 175.254 226.354 174.781 C 227.967 172.949,239.265 167.127,245.000 165.173 C 252.215 162.714,258.096 161.699,266.458 161.467 C 269.380 161.386,271.865 161.305,271.979 161.288 C 272.094 161.270,273.513 161.347,275.133 161.457 M256.250 166.283 C 248.843 167.839,243.899 169.501,238.004 172.418 C 234.047 174.377,233.266 174.974,233.838 175.607 C 235.808 177.786,251.256 183.542,256.606 184.090 C 258.180 184.251,258.202 184.190,257.318 182.113 C 255.173 177.070,255.388 173.008,258.059 168.171 C 258.611 167.172,259.094 166.284,259.132 166.198 C 259.226 165.986,257.407 166.040,256.250 166.283 M266.708 166.576 C 256.707 169.918,257.698 183.319,268.089 185.251 C 272.718 186.112,277.853 182.183,278.764 177.083 C 279.940 170.504,273.014 164.469,266.708 166.576 M279.375 166.104 C 279.375 166.172,279.708 166.796,280.116 167.491 C 283.054 172.504,283.440 177.528,281.239 182.080 C 280.242 184.143,280.240 184.167,281.123 184.167 C 286.704 184.167,306.332 176.383,304.862 174.753 C 304.126 173.937,296.469 170.466,291.875 168.867 C 287.194 167.238,279.375 165.510,279.375 166.104 " stroke="none" fill="#000000" fill-rule="evenodd"></path></g></svg>